<svg xmlns="http://www.w3.org/2000/svg" xmlns:xlink="http://www.w3.org/1999/xlink" viewBox="0 0 677.33 316.24"><defs><linearGradient id="linear-gradient" x1="340" x2="557.3" y1="233.9" y2="233.9" gradientUnits="userSpaceOnUse"><stop offset="0" stop-color="#ffab97"/><stop offset="1" stop-color="#ff5e69"/></linearGradient><linearGradient xlink:href="#linear-gradient" id="linear-gradient-2" x1="515.95" x2="545.42" y1="73.17" y2="113.02"/><linearGradient xlink:href="#linear-gradient" id="linear-gradient-3" x1="439.97" x2="463.16" y1="166.25" y2="203.44"/><linearGradient xlink:href="#linear-gradient" id="linear-gradient-4" x1="470.98" x2="566.18" y1="233.9" y2="233.9"/><linearGradient xlink:href="#linear-gradient" id="linear-gradient-5" x1="461.88" x2="442.16" y1="92.24" y2="50.25" gradientTransform="rotate(76.15 460.444 89.16)"/><linearGradient xlink:href="#linear-gradient" id="linear-gradient-6" x1="715.82" x2="705.77" y1="94.3" y2="150.28" gradientTransform="matrix(.98 .18 -.18 .98 -532.21 -73.97)"/><linearGradient xlink:href="#linear-gradient" id="linear-gradient-7" x1="28.54" x2="22.19" y1="54.36" y2="31.99" gradientTransform="matrix(-1 0 0 1 169.96 0)"/><linearGradient xlink:href="#linear-gradient" id="linear-gradient-8" x1="54.78" x2="48.43" y1="47" y2="24.63" gradientTransform="matrix(-1 0 0 1 169.96 0)"/><linearGradient xlink:href="#linear-gradient" id="linear-gradient-9" x1="628.61" x2="618.24" y1="125.6" y2="183.41" gradientTransform="translate(-567.04)"/><linearGradient xlink:href="#linear-gradient" id="linear-gradient-10" x1="65.96" x2="88.61" y1="302.85" y2="240.93" gradientTransform="matrix(-1 0 0 1 169.96 0)"/><linearGradient xlink:href="#linear-gradient" id="linear-gradient-11" x1="32.4" x2="31.97" y1="307.81" y2="255.6" gradientTransform="matrix(-1 0 0 1 169.96 0)"/><linearGradient xlink:href="#linear-gradient" id="linear-gradient-12" x1="45.1" x2="41.78" y1="59.93" y2="48.21" gradientTransform="matrix(-1 0 0 1 169.96 0)"/><linearGradient xlink:href="#linear-gradient" id="linear-gradient-13" x1="39.13" x2="35.52" y1="48.46" y2="11.16" gradientTransform="matrix(-.99 -.16 -.16 .99 175.31 6.71)"/><linearGradient xlink:href="#linear-gradient" id="linear-gradient-14" x1="3388.21" x2="3386.21" y1="267.41" y2="347.25" gradientTransform="matrix(-1 0 0 1 3746.43 0)"/><linearGradient xlink:href="#linear-gradient" id="linear-gradient-15" x1="3355.67" x2="3355.87" y1="257.29" y2="231.26" gradientTransform="matrix(-1 0 0 1 3746.43 0)"/><linearGradient xlink:href="#linear-gradient" id="linear-gradient-16" x1="3341.28" x2="3341.45" y1="255.91" y2="233.55" gradientTransform="matrix(-1 0 0 1 3746.43 0)"/><linearGradient xlink:href="#linear-gradient" id="linear-gradient-17" x1="3496.73" x2="3499.82" y1="212.51" y2="231.01" gradientTransform="matrix(-1 0 0 1 3746.43 0)"/><linearGradient xlink:href="#linear-gradient" id="linear-gradient-18" x1="3430.36" x2="3420.5" y1="192.13" y2="185.81" gradientTransform="matrix(-1 0 0 1 3746.43 0)"/><linearGradient xlink:href="#linear-gradient" id="linear-gradient-19" x1="3409.61" x2="3415.64" y1="182.56" y2="139.97" gradientTransform="matrix(-.97 -.23 -.23 .97 3696.19 783.46)"/><linearGradient xlink:href="#linear-gradient" id="linear-gradient-20" x1="3319.19" x2="3303.7" y1="-492.57" y2="-515.37" gradientTransform="matrix(-.97 .25 .25 .97 3658.23 -161.13)"/><linearGradient xlink:href="#linear-gradient" id="linear-gradient-21" x1="17.53" x2="108.12" y1="307.32" y2="291.95" gradientTransform="matrix(-1 0 0 1 316.81 0)"/><linearGradient xlink:href="#linear-gradient" id="linear-gradient-22" x1="145.35" x2="138.73" y1="233.36" y2="177.82" gradientTransform="matrix(-1 0 0 1 316.81 0)"/><linearGradient xlink:href="#linear-gradient" id="linear-gradient-23" x1="124.18" x2="163.29" y1="292.63" y2="307.78" gradientTransform="matrix(-1 0 0 1 316.81 0)"/><linearGradient xlink:href="#linear-gradient" id="linear-gradient-24" x1="136.19" x2="120.7" y1="201.14" y2="178.35" gradientTransform="matrix(-.97 -.24 -.24 .97 358.96 36.64)"/><linearGradient xlink:href="#linear-gradient" id="linear-gradient-25" x1="214.32" x2="215.82" y1="273.8" y2="334.38" gradientTransform="matrix(-1 0 0 1 316.81 0)"/><linearGradient xlink:href="#linear-gradient" id="linear-gradient-26" x1="114.81" x2="111.4" y1="241.02" y2="260.66" gradientTransform="matrix(-1 0 0 1 316.81 0)"/><linearGradient xlink:href="#linear-gradient" id="linear-gradient-27" x1="142.66" x2="127.17" y1="189.32" y2="166.52" gradientTransform="scale(-1 1) rotate(-26 12.41 911.303)"/><linearGradient xlink:href="#linear-gradient" id="linear-gradient-28" x1="427.61" x2="433.44" y1="229.14" y2="242.73"/><linearGradient xlink:href="#linear-gradient" id="linear-gradient-29" x1="461.98" x2="461.98" y1="254.28" y2="277.23"/><linearGradient xlink:href="#linear-gradient" id="linear-gradient-30" x1="592.84" x2="607.34" y1="111.5" y2="132.75"/><linearGradient xlink:href="#linear-gradient" id="linear-gradient-31" x1="629.25" x2="607.4" y1="162.29" y2="228.38"/><linearGradient xlink:href="#linear-gradient" id="linear-gradient-32" x1="470.24" x2="447.18" y1="252.13" y2="247.89"/><linearGradient xlink:href="#linear-gradient" id="linear-gradient-33" x1="462.85" x2="484.97" y1="230.09" y2="218.89"/><linearGradient xlink:href="#linear-gradient" id="linear-gradient-34" x1="455.22" x2="433.47" y1="247.67" y2="234.29"/><clipPath id="clip-path"><path fill="none" d="m141.64 273.08-.88-46.95a27.07 27.07 0 0 1 15.87-15.75c18.51 7.81 26.71 25.68 33.37 26.86 8.89 1.56.29-15.92-2.49-21 9 5.65 17.16 13.85 19.9 22.41l1.1 4.21a23 23 0 0 0-8.27 1.66l-18.65 9.22a42.41 42.41 0 0 0-9.23 31.13c3.18 28-41.51 30.82-41.51 30.82H111z"/></clipPath><style>.cls-26,.cls-28,.cls-4{fill:none}.cls-2{fill:#2c665b}.cls-3{fill:#184c42}.cls-4{stroke:#000}.cls-26,.cls-28,.cls-4{stroke-linecap:round;stroke-linejoin:round;stroke-width:.8px}.cls-5{fill:#e5410e}.cls-6{fill:#ff7f0b}.cls-7{fill:#f4f4f4}.cls-8{fill:#ffb434}.cls-9{fill:#6da6c9}.cls-10{fill:#aa1b04}.cls-14{fill:#82b1db}.cls-16{fill:#5b93bc}.cls-26{stroke:#f4f4f4}.cls-28{stroke:#fff}</style></defs><g id="Layer_2" data-name="Layer 2"><g id="OBJECTS"><path d="M198.53 106c0-5.85.19-11.64.54-17.16l19.19 6-19-8.73c.08-1.12.17-2.23.26-3.32l16.92 2.5L200 77.23c.31-3.06.65-6 1-8.68l14.21 2.32-13.6-6.87c1.32-9.42 2.56-15.46 2.56-15.46s27.25 20.11 23.94 45.88-24.91 49.4-24.91 49.4a121.23 121.23 0 0 1-4.39-28l13.52-2.07z" class="cls-2"/><path d="m214.06 93.53-15-4.71c-.35 5.52-.56 11.31-.54 17.16l13.8 7.83-13.52 2.06a121.23 121.23 0 0 0 4.39 28 124.39 124.39 0 0 0 14.22-20 84.05 84.05 0 0 0-3.35-30.34zm-3.35-9.08-11.2-1.65c-.09 1.09-.18 2.2-.26 3.32l14.59 6.7a82.69 82.69 0 0 0-3.13-8.37zM201 68.55c-.34 2.71-.68 5.62-1 8.69l9.53 4.68a87.18 87.18 0 0 0-7.85-13.26z" class="cls-3"/><path d="m209.08 114.31-10.27 1.56a121.14 121.14 0 0 0 4.39 28c.17-.33 7.8-14.2 5.88-29.56zm-10.26-20.93c-.2 4.12-.31 8.34-.29 12.6l10.15 5.76a35 35 0 0 0-9.86-18.36z"/><path d="M189.35 126.84c-.85-1.2-1.66-2.42-2.42-3.63l11.52-9.07-13.45 5.8a26.53 26.53 0 0 1-3-7.41l15.1-9.31-16.05 5.31c-.3-.85-.66-1.73-1.07-2.63l7.55-5.5-8.42 3.66a94.59 94.59 0 0 0-5.92-9.83l7.78-5-9.53 2.49-.65-.9 12-6.09-14.28 3c-3.78-5-6.88-8.7-6.88-8.7 6.24-3.57 29.07-1.31 37.39 20.09s4.14 44.74 4.14 44.74-5.55-5.92-11-13.08l7.06-4.85z" class="cls-2"/><path d="m185 119.94 13.46-5.8-11.52 9.07q1.14 1.82 2.42 3.63l9.93-.92-7.06 4.85c5.43 7.16 11 13.08 11 13.08a98.47 98.47 0 0 0-.13-29.68 82.44 82.44 0 0 0-8.46-9.41L182 112.54a26.6 26.6 0 0 0 3 7.4zm-5.88-15.88 8.43-3.65-7.55 5.48c.41.91.77 1.79 1.06 2.64l13-4.3c-6-5.48-12.81-9.28-19.1-7.37a80.48 80.48 0 0 1 4.16 7.2z" class="cls-3"/><path d="m168.55 87.72 14.28-3M206.42 140c6.15-7.72 19.17-26 21.69-45.56 3.31-25.77-23.94-45.88-23.94-45.88L201.61 64l13.61 6.84M180 105.89l1.06 2.64 16.07-5.31m-12.14 16.72 13.46-5.8-6.5 5.12" class="cls-4"/><path d="m200.49 72.87-.47 4.36 16.41 8.07M161.67 79s20-7.11 35.24 15.5" class="cls-4"/><path d="M220.16 149.88h5.54l15.64 165.86h-5.53l-15.65-165.86z" class="cls-5"/><path d="m227.16 165.41 14.18 150.33" class="cls-4"/><path d="M174.32 149.88h-5.54l-15.64 165.86h5.53l15.65-165.86z" class="cls-5"/><path d="M158.07 202.72h79.45v10.26h-79.45z" class="cls-6"/><path d="M222.06 202.72h-49.64l-8.69-66h67.02l-8.69 66z" class="cls-7"/><path d="M195.03 149.88h5.53v165.86h-5.53z" class="cls-8"/><path d="m192.84 202.72-2.1 10.26h4.29v-10.26h-2.19zm-30.01 10.26h5.53l-1.3 13.83-5.6.75 1.37-14.58zm68.82 0 .47 5.02-5.46.74-.54-5.76h5.53z"/><path d="m195.03 161.43-6.06 41.29h6.06v-41.29z" class="cls-9"/><path d="m222.06 202.72 8.69-66h-67.02" class="cls-4"/><path d="M200.56 149.88v165.86h-5.53m42.49-113.02v10.26h-36.57m-26.63-.28 20.71.28m-26.67 0-5.75 60.97m3.11-122.14 5.63 42.79m11.7 8.12h-24.98v10.26m-2.06 72.35-2.87 30.41h5.53" class="cls-4"/><path d="M472.93 93.59h3.85c-1.63-4.06-6.56-4.45-6.56-4.45l-8.89 5.35-10.87 3.29 4.67 8.73a11.8 11.8 0 0 0 7.42 3.18l-.78-2.3a4.66 4.66 0 0 0 3 1.31l-.11-3.06 6.93.5.3-5.49 4.85-.64c-1.28-6.43-3.81-6.42-3.81-6.42zM516.44 300a12 12 0 0 0 6.53 7.16l7.48-9.5s-8.75-2.58-14.01 2.34z" class="cls-10"/><path d="M510.56 309.14s-.53 2.78 5 4.58l4.93-9s-7.49-.01-9.93 4.42zm-88.75-104.28s-4.32-31.62 41.53-40l13.44 17.62-34.87 27.8zm138.31-99.33s39.69-16.85-7.32-76.75l-26.73 25.06z" class="cls-10"/><path d="M570.27 245.92 552 228.72l2.91 24c-31.9 9.61-70.33-2.84-75.17-24.6-5.62-25.26-21.92-87.73-21.92-87.73l114.5 18.35 25.9 24.76s4.69 42.5-27.95 62.42z" class="cls-5"/><path d="m553 236.61 2 16.09c-31.9 9.61-70.33-2.84-75.17-24.6-.72-3.23-1.61-7.07-2.63-11.31 12.28 6 27.45 13.13 39.32 17.65 13.71 5.23 25.84 6.41 36.48 2.17z" class="cls-10"/><path d="m554.95 252.7-4.7-38.76" class="cls-4"/><path d="m570.27 245.92-12.39-11.69c5.93-3.48 11.36-8.87 16.32-16.46 8.35-12.76 8.76-34 7.53-50.09l16.53 15.8s4.65 42.52-27.99 62.44z" class="cls-10"/><path d="M595.46 181.06s-22.86-7.89-31.27 20.08C556 228.25 506 171.78 506 171.78l61.72-22.45z"/><path fill="url(#linear-gradient)" d="M482.97 190.59 374.95 298.73l-33.23 12.49-1.72 4.52h67.56l1.88-4.04L557.3 203.8l-10.39-51.73-63.94 38.52z"/><path fill="url(#linear-gradient-2)" d="m588.26 21.83-8.46-11.47 2.82-3.18a5.19 5.19 0 0 0-.26-7.18l-26 25.41-71.66 67.22s-12.37 9.79-15.32-1.7l-12.84 12s8.62 4.44 9.23 7.43l-5.77 5.43a30.14 30.14 0 0 0-3.35 40.27L483 190.59l63.94-38.52-7.15-34 39.33-92.13 4 .51 4.57-2.28a1.55 1.55 0 0 0 .57-2.34z"/><path fill="url(#linear-gradient-3)" d="m427.47 160.61 5.95 37.22c5.17 22.22 35.7 24.94 44.72 4l4.86-11.24L452 150c-.23-.3-.47-.6-.71-.88-8.95-10.4-25.99-2.04-23.82 11.49z"/><path d="m483 190.59-4.83 11.23c-9 21-39.55 18.23-44.71-4l-1.74-10.9c.34.44 9.77 11.54 36.94-15.15z"/><path d="m483 190.59-4.83 11.23c-.16.38-.33.76-.52 1.13-6.58 13.55-23.32 18.66-36.71 11.76l-19.1-9.85s32.84-8.93 41.53-40z" class="cls-8"/><path d="m477.3 183.14-1.83-2.39a15.24 15.24 0 0 1-11.08 4.75c-.44 0-.89 0-1.33-.07a18.34 18.34 0 0 0-5.34-7.59c-.52.86-1.07 1.7-1.63 2.52a15.06 15.06 0 0 1 3.4 4.32 15.23 15.23 0 0 1-4.66-2.56c-.59.8-1.21 1.57-1.84 2.32a18.11 18.11 0 0 0 7.8 3.68 15.1 15.1 0 0 1-5.32 15.63l-4.2-5.87a1 1 0 1 0-1.61 1.15l4.18 5.85a15.1 15.1 0 0 1-12.76 1.41 18.13 18.13 0 0 0-2.82-9.09c-.86.54-1.71 1.05-2.54 1.53a15.12 15.12 0 0 1 2.25 6.1 15.31 15.31 0 0 1-4.82-4.69c-.93.49-1.83.93-2.67 1.33a18.26 18.26 0 0 0 7.59 6.79 15.53 15.53 0 0 1-1.07 4.43l2.64 1.37a18.13 18.13 0 0 0 1.29-4.71 18.45 18.45 0 0 0 5 .72 18.17 18.17 0 0 0 9.62-2.77l2.71 3.79a1 1 0 0 0 1.38.23 1 1 0 0 0 .23-1.38l-2.7-3.77a18.24 18.24 0 0 0 7-14.38 17.43 17.43 0 0 0-.33-3.34h.49a18.29 18.29 0 0 0 12.97-5.31z" class="cls-6"/><path d="M420.36 309.48s-20.87-8.1-36-1.41l-6.42-3.32 1.9-2.5s17.45-13 43.5 2.12z" class="cls-7"/><path d="M462.26 113.66s-9 19.6 5.64 42.31 21 31.08 21 31.08L471 222.18s-15.1-53.25-19.12-68.73-1.17-27.4 3.27-31.78a78.45 78.45 0 0 0 7.11-8.01z" class="cls-8"/><path d="M384.35 289.32s26.84.79 42.93 25.44l117.83-92.25L483 190.59z" class="cls-14"/><path d="m411.83 299 91.62-97.89" class="cls-4"/><path d="M546.91 152.07 483 190.59l-26.33-34.53c-5.11-6.71-.68-28.61.46-36.41 2 4.56 10.9 6.25 20.2-2.8 12.53-12.22 5.67-22.62 5.67-22.62l24.38-22.85 35.47 39.47-3.06 7.2z"/><path d="m560.64 68.93-15.8 37.16a24.36 24.36 0 0 1-12.32-4.84c-10.6-8-14.82-24.14-16.4-38.08l36.67-34.39s-3.13 24.1 7.85 40.15zm-95.91 43.74s-4.29 22.88 3.79 35.65c6.47 10.23 18.9 32.87 20.34 38.73l-5.15 3.1s-41.71-47.27-18.98-77.48z"/><path fill="url(#linear-gradient-4)" d="M546.91 152.07 483 190.59c-12.42 7.21-15.33 15.35-8.08 29.58l46.9 76.15-12.44 19.42h10.2l36.94-23.69-3.12-7.36-11.8-59.42 18.53-14a18.64 18.64 0 0 0 4.16-21.93z"/><path d="M538.56 296.08s.91-13.09 14.11-14.93l.7 3.54s-4.43-2-8.75 12.15z" class="cls-7"/><path d="m488.86 187.05-6.93 13.63c-6.28-9.06-15.32-22.3-23.62-35.17a50 50 0 0 1-8.31-25.76v-.72c0-8.3 2.3-17.78 5.58-20.26 5.55-4.2 10.25-8.4 10.25-8.4s-12.26 23.29 2.13 45.6c14.58 22.7 20.9 31.08 20.9 31.08z" class="cls-16"/><path d="m560.13 211.29-18.53 14 11.77 59.41c-15.43-2.09-47.56 12-47.56 12l-32-76c-7.25-14.23-3.29-22.81 9.13-30l63.94-38.52 20.47 21c9.91 19.82-1.13 32.53-7.22 38.11z" class="cls-14"/><path d="m560.14 211.29-15 11.33a.52.52 0 0 1 0-.11c10.25-44.13-25.45-53.61-25.93-53.74l27.72-16.7 20.48 21c9.85 19.93-1.18 32.64-7.27 38.22z" class="cls-16"/><path d="M480.1 96.94s4.64 47.9 25.71 58.11 62.29.92 92.45 28.44L539.76 118l20.36-12.51s-14.89-34.42-7.32-76.75z" class="cls-8"/><path d="M547.08 103.7c0-.41-.06-.82-.06-1.24a16 16 0 0 1 2.36-8h.64a17 17 0 0 0 6-1.1c-.25-.92-.51-1.89-.76-2.9a14 14 0 0 1-3.73.94 23.28 23.28 0 0 1 3.2-3.07c-.23-1-.47-2.06-.7-3.13a25.54 25.54 0 0 0-6.15 6.12c-6.08-.91-11.15-5.71-13.42-12.25l6.87-4.84a1 1 0 1 0-1.14-1.62l-6.33 4.46a23.36 23.36 0 0 1-.69-5.67c0-8.22 4.17-15.3 10.11-18.41a20.57 20.57 0 0 0 7.36 3.11v-3a17.78 17.78 0 0 1-3.76-1.38 14.1 14.1 0 0 1 3.13-.36h.65c0-1 0-2 .07-3h-.72a17.32 17.32 0 0 0-6.34 1.22 15.28 15.28 0 0 1-5-7.52l-2.38 2.23a18.26 18.26 0 0 0 4.52 6.71c-6.28 3.87-10.57 11.56-10.57 20.4a26.59 26.59 0 0 0 1.08 7.49l-15.46 10.9a1 1 0 0 0 .58 1.8 1 1 0 0 0 .57-.18l15-10.57c2.6 6.74 7.89 11.77 14.27 13.21a17.91 17.91 0 0 0-2.14 10 13.45 13.45 0 0 0 4.29 8.73l2.66-1.64a10.36 10.36 0 0 1-4.01-7.44z" class="cls-6"/><path d="M553.37 284.68c-15.43-2.09-47.56 12-47.56 12l-32-76c-7.25-14.23-3.29-22.81 9.13-30l27.11-16.33" class="cls-4"/><path d="M526.5 126.2s11.63-5.43 28.6 9L539.76 118z" class="cls-6"/><path d="m537.43 218.78 4.17 6.49-9.47-.74" class="cls-4"/><path d="M598.26 183.48c-30.17-27.51-71.37-18.22-92.44-28.43s-25.73-58.11-25.73-58.11l10.7-10s4.75 52.11 27.79 56.81c14.85 3 34.9 4.66 53.53 10.51z" class="cls-16"/><path d="M461.33 138.29c-.15-1.1-.26-2.2-.33-3.27l-10.94 6.65c.08 1.06.19 2.14.35 3.26zm2.23 9-12.83-.43c.18 1 .4 2 .66 3l13.42.45c-.46-1.02-.88-2.02-1.25-3.02zm-10.47-25.08 8.21 3.69c.13-1.05.29-2.07.47-3l-7.13-3.21a11.33 11.33 0 0 0-1.55 2.52zm17.7 38.23-1.65-2.54-9.67 9.4 1.65 2.54zM486 183l-1.71-2.45-10 8.9 1.69 2.48zm-6.31-9.11-14.76 1.74c.61.93 1.23 1.85 1.84 2.77l14.79-1.74c-.56-.86-1.21-1.78-1.87-2.77zm21.76-46.35c-.53-1.06-1-2.15-1.53-3.26l-8.54 14.55c.53 1 1.08 2.06 1.65 3zm6.28 9.46-14.25 5.61c.53.87 1.08 1.72 1.64 2.54l14.88-5.83a27.55 27.55 0 0 1-2.27-2.32zm-25.6-27 9-20.26c-.23-1.77-.32-2.8-.32-2.8l-2.89 2.7-6.72 15.17c.24 1.54.56 3.29.93 5.19zm14.29 4.79-12.35 3.77c.24.94.5 1.9.77 2.87l12.5-3.82c-.34-.94-.63-1.88-.92-2.82zm17.09 42.99 2.89-14.65a17.82 17.82 0 0 1-2.78-1.26l-3 15.08c.95.3 1.91.58 2.89.83zm40.06-8.12-4.69 13.15 3 .46 4.64-13zm22.25 19.91c.93.37 1.86.76 2.79 1.18l1.52-7.54-2.47-2.77zm-12.61-17.8c-1.17-.29-2.33-.56-3.5-.82l5.82 15.2c1.19.32 2.38.67 3.58 1zm-30.58-5.62-15 12.57c1.24.25 2.51.48 3.81.68l15.13-12.65zm11.12 1.75-3-.49 1.25 14.51 3 .37z" class="cls-14"/><path d="M498.2 80s-3.79 10.63 1.64 19.53m-19.75-2.59 72.71-68.16M452.39 155.47l13.38 48.27m-7.46-26.91c-12 21.35-36.5 28-36.5 28l19.1 9.85m92.21-87.95 6.64-8.69 40.31 45.09M495 109.69s6.22 31.11 23.62 34 33.29 5.6 33.29 5.6m-88.84 23.53 9.86 14.74" class="cls-4"/><path d="M473 96s-6.73 6.28-7.22 14.34c-.62-3-9.24-7.43-9.24-7.43l12.84-12c.73 2.87 2.06 4.41 3.62 5.09z"/><circle cx="460.43" cy="89.15" r="14.33" fill="url(#linear-gradient-5)" transform="rotate(-76.15 460.443 89.143)"/><path d="m541.6 225.27 7.95 40.15m-17.42-104.61s21.34 9.67 12.87 17.33c-5.35 4.83-15 11.42-22.37 16.44a47.29 47.29 0 0 1-21.31 7.85h-.42s6.27 4.45 16.69 5.89c0 0-10.2 2.85-14.14 2.15 0 0 1.5 3.44 10.24 3.42a11.62 11.62 0 0 0-2.86 12.11l21.07 61.46" class="cls-4"/><path d="M598.26 183.48c-30.17-27.51-71.37-18.22-92.44-28.43s-25.73-58.11-25.73-58.11M449.94 139c0-8.3 2.3-17.78 5.58-20.26 5.55-4.2 10.25-8.4 10.25-8.4m-90.82 188.39 88.12-88.21m-31.73-25.73-3.87-24.18m-5.66 39.63s1.9-14 8.84-19.71M563.74 230s20-14.45 18.44-45.23m-19.96 53.56 8 7.59s20.08-8.78 26.44-39.12m-29.28-33.75s11.76 19.51-3.64 34.55M427.28 314.76l64.81-50.74" class="cls-4"/><path d="M473.84 220.61s13.61 37.29 5.29 53.56l13-10.15z"/><path d="M384.35 289.32s18.2 1.08 32.77 13.75" class="cls-4"/><path d="m356.26 303.6 6.91 8.1h10.33l-9.44-11.87 10.54-4.33 12.57 16.2h24.66v4.04h-72.78v-4.04h13.58l-3.72-5.33 7.35-2.77zm154.3 5.54s6.21-5.78 15.94 2.14l-1.47.94a9.44 9.44 0 0 1-5.11 1.5h-11.46v2h19.28l32.61-20.84-1.92-4-11.84 7.54a25.82 25.82 0 0 0-26.25-4.42l-3.9 6s12.33-6.09 22.61 3.21l-5.66 3.63s-10.69-7.44-19.7-3z"/><path d="m374.6 295.5 12.57 16.2m-13.67 0-9.44-11.87 3.5-1.44m-28.51 17.35h72.78m101.86-11.85s8.38-4.54 19.7 3M520.34 294a25 25 0 0 1 26.25 4.42M363.17 311.7l-6.91-8.1-3.63 1.37m-13.58 6.73h13.58m42.07-6.12s11.27-1.24 25.66 3.9" class="cls-4"/><path d="m558.43 290.85 1.92 4.04-32.6 20.84h-19.3m40.31-28.27a48.8 48.8 0 0 0-4.14 9.38" class="cls-4"/><path d="m526.5 311.28-1.47.94a10.71 10.71 0 0 1-5.11 1.5h-4m-61.26-149.85s-9.6 5.19-13.51 4-3.25-6.13-3.25-6.13m-3.52-3.84s1.66 7.43 6 1.9m4.9-.4a18.85 18.85 0 0 1 .82 8.06m3.84-9.56a17.16 17.16 0 0 1 1.78 7.41" class="cls-4"/><path d="M444.14 167.92c4.8-.67 9.33-.67 12.4 2.78l-1.88-6.83c-4.84 2.45-8.25 3.71-10.52 4.05z"/><path d="M551.9 72.58a144 144 0 0 0 8.22 33l-35.64 21.91" class="cls-4"/><path d="M465.77 76.72a18.55 18.55 0 0 1-4.82 10l-2.32-3.58s-.15 10.81-2.2 12.42c-3 4.13-1.77 6 .77 12 0 0-2.53 1.73-7.51-3.91l-1.39 3.06s-5.29-1.29-6-8l-3.19 2.12s-4.44-12.07-.52-15.42c0 0-.39-8.54 3.93-13.89l.89 1.37s4.77-6.54 10.27-7.37v1.7s11.74-3.37 17 .42l-1.69 1.94s11.54 2.63 4.08 12.65a13.24 13.24 0 0 0-7.3-5.51z"/><path d="m582.62 7.18-6.85 7.13m6.59-.47-9.33 9.03m10.1 3.55s-8.35.06-11.43-5.25m13.13-4-7.95 8.08m-5.55-12.82 7.61 3.26-.87 1a6.16 6.16 0 0 1-4.34 2.05l-5.32.25m11.92 7.08 7-5.5m-12.83 16.1-11.62 27.21m5.31-11.71s12.17 20.51 5.86 37.56M461 86.71c3.68-3.13 4.82-10 4.82-10a12.79 12.79 0 0 1 8.51 8.74m-15.7-2.32s-.06 9.32-1.61 11.61m-3.38-29.17s-5 .18-10.27 7.37m18.07-1.56s4.2-2.6 7.48-1.75 7.12 3.1 6.59 7.09m-33.25 22.04-3.19 2.12c-4.65-13-.52-15.42-.52-15.42m9.75 21.27s-9-2.52-4.93-12.53m4.93 4.25s.72 10 8.9 9.13m-13.06-28.37a14.91 14.91 0 0 1 6.59-6.63l.1 3.32m2.81-8.63s10.48-3.52 17 .42m-26.5 19.01s-.64 4.09 3.34 4.22l.82-2" class="cls-4"/><path fill="url(#linear-gradient-6)" d="m148.25 74.19 28.36 103.16s.33 29.21-32.88 16.18z"/><path d="M151 173s1.83-5.14 8.62-5M152 188.6a9.75 9.75 0 0 0 8.88.54m-8.56 4.73s4.2 1.92 7.69 0m-.3-16.56-8.26 2.4" class="cls-4"/><path d="M161.15 118.25a34.26 34.26 0 0 1-14.79 8.75l2.1-52.85z"/><path d="m154.89 80.44 17 30.88s-17.25 15.21-30.74 8.11l-6.73-61.3.71.49a64.24 64.24 0 0 1 19.76 21.82z" class="cls-5"/><path d="M171.91 111.32s-17.25 15.21-30.74 8.1l.15-4.85c12.87-.9 21-6 26.1-11.39z" class="cls-10"/><path d="m161.93 93.23 10 18.09a43.58 43.58 0 0 1-10.76 6.93m-6.48 60.52 5.35.99" class="cls-4"/><path d="M169.55 155.87s-11.57-.19-19.1 7.62L151 173s5.63-10.63 17.64-8.93z"/><path d="m165.692 153.662 6.438-1.853 3.705 12.878-6.439 1.852z" class="cls-8"/><path d="m165.69 153.67 3.7 12.87 6.44-1.85m-7.35-11.83 3.64-1.05" class="cls-4"/><path d="m141.67 44.52-2.75 9-1-1.94s-2.2 5.74-5.54 6.18l-2-2.87s-2.79 5.72-6.67 8.87l-3-9.32h-1.61a10.91 10.91 0 0 1 0-8.15l-2 .79 2-9.32z" class="cls-5"/><path d="m119.11 46.3-1.97.79 1.97-9.32m19.81 15.76-1-1.94s-2.09 5.53-5.54 6.18" class="cls-4"/><circle cx="145.35" cy="40.51" r="4.62" fill="url(#linear-gradient-7)"/><path fill="url(#linear-gradient-8)" d="M114.49 33.15a4.62 4.62 0 1 0 4.62-4.62 4.62 4.62 0 0 0-4.62 4.62z"/><path fill="url(#linear-gradient-9)" d="M97.64 62.68 42.39 103a18.33 18.33 0 0 0 5 32.2l18.47 6.13a5 5 0 0 0-.61 6.53l.2.27a4.15 4.15 0 0 0-1.45 6.46l1 1.29s15.9 4.32 21.15-9.16z"/><path d="M66.25 96.81a32.24 32.24 0 0 0 28.42 16.52c20.5.18 4.35-42.54 4.35-42.54z"/><path d="M104.5 56.56 63 83.5s-5.37 19.69 28.08 25.11z" class="cls-5"/><path d="m56.04 138.1 14.05 4.83m-4.6 5.24 2.51-1.14" class="cls-4"/><path d="m93.22 100.33-2.14 8.29C57.62 103.19 63 83.5 63 83.5l5.48-3.57c-.34 6.18 2.45 11.06 9.2 16.23 5.53 4.23 11.32 3.65 15.54 4.17z" class="cls-10"/><path d="M42.54 293.27S53 303.48 99.16 305.58l5.31-51.11H52.25zm117.75 0s-20.66 17.2-60.81 11.35l7.81-51.39h42.59z"/><path fill="url(#linear-gradient-10)" d="M83.3 122.94 49.31 301.02l-23.54 9.12h73.25l20.06-187.2H83.3z"/><path fill="url(#linear-gradient-11)" d="m152.99 122.94-4.66 178.08 27.73 9.12H99.02l20.06-187.2h33.91z"/><path d="M99.48 305.89s-5.3 0-8.39-1.7A26.9 26.9 0 0 0 77.87 301H49.31l-23.54 9.12H99zm0 0s7.59 0 11.59-2.11a27.73 27.73 0 0 1 13-3.18l24.23.42 27.73 9.12H99z" class="cls-3"/><path d="m153 122.94 7.29 170.33s-40.39-26.17-59-4.44l17.78-165.89z" class="cls-16"/><path d="M83.3 122.94h35.78L101.3 288.83s-42-8.12-58.76 4.44z" class="cls-16"/><path d="M100.11 300.75c18.76-21 60.18-7.48 60.18-7.48l-2.7-62.83c-2.27-.47-9.28 5.14-11.46 3.36-7.11-5.81 16-19.75-2.78-33.63 0 0 3.24 18.2-5.8 17.16s-6.12-23.35 1.37-27.78c0 0-19.82-1.05-17 19.46s1 27.56-13.67 15.5l-1.7 16.92z" class="cls-9"/><path d="M42.54 293.27c17.69-14.44 57.21 10.41 57.21 10.41.16-.19 6.75-62.25 6.75-62.25l-.09-.2c-5.21-12.09-14-4-16-17.42-2.27-15.64 4-19.36 4-19.36s-8.68 2.06-12.81 8.84c-5.25 8.59-.24 20.67-5.81 24S63.82 234 70 223.44s-.46-15.74-.46-15.74c1.6 6.14-4.45 14.27-10.21 15.44z" class="cls-9"/><path d="M102.24 57.59A27.69 27.69 0 0 0 90.57 76l-7.27 46.9H153a7.1 7.1 0 0 0-.36-10.55l-1.58-1.31L145.33 76a27.74 27.74 0 0 0-43.09-18.41z" class="cls-7"/><path d="M123.5 128.84s-.56 13.6-6.37 12.28m29.26-18.18s-1 24.74 7.54 24.74m-63.5-24.74s1 23.54-12.51 22.48m5.38-22.48H153s5.42-7-1.94-11.86l-4.78-29.28m-56.92 2.05-6.06 39.09" class="cls-4"/><path d="M42.53 293.27c17.71-14.45 57.22 10.4 57.22 10.4s3.87-35.22 5.73-52.65c0 0-4.6 17.78-11.92 15.6s3-21.34 3.35-21.91c-.49.18-17 6.37-15.76 19.63 1.24 13.46-9.48 17.71-13.32 12.46s7.56-13.32 3.78-18.92-8.2-6.92-8.2-6.92 2.76 13.59-4.41 16.64-6.76-14.81-6.76-14.81z" class="cls-14"/><path d="m148.88 97.77 2.17-9.96M86.98 99.18l-1.93-7.81" class="cls-4"/><path fill="url(#linear-gradient-12)" d="M138.92 48.34s-5.49 3.79-4.48 9.79c0 0-4.88 3.81-9.67 2.51-5.54-1.5-7-8-7-8s4.82-5.66 1.84-12.17z"/><path d="M117.73 52.68a12.54 12.54 0 0 0 1.84-12.17m-8.41 13.02s-10.45 1.52-17.57 13.68M63.46 91.48s-1-2.6-.46-8l15-9.7" class="cls-4"/><path d="M100.11 300.74c18.76-21 60.18-7.47 60.18-7.47l-1.56-36.21c-1.59-3.17-3.77-5.88-6.72-7.27a9.33 9.33 0 0 1-.15 11.06c-4.18 6-16.13-1.48-11.59-13.33 0 0-8.5 6.24-7.62 16.82s-10.72 14.44-13.57 11.35-1-14.33-1-14.33a8.11 8.11 0 0 0-6.22 7.55c-.26 6.07-4.76 12-9.13 7.33z" class="cls-14"/><path d="m84.24 116.86-13.84-2.7m3.26-3.08 4.03 4.5m75.84 21.48 2.75 71.95" class="cls-4"/><path d="M121.87 41.45a28 28 0 0 0 4.13 7.28 10.83 10.83 0 0 0 9.28 4 12.42 12.42 0 0 1 3.64-4.33zm-21.76 259.29.4-.41a29.81 29.81 0 0 1 6.95-5.58c-4.48-10.75-3.1-29.95-3-34.19z"/><circle cx="132.06" cy="35.76" r="14.33" fill="url(#linear-gradient-13)" transform="rotate(-9.45 132.073 35.766)"/><path d="M80.5 134.18 55.37 239.64" class="cls-4"/><path d="M138.45 82.89a2.92 2.92 0 0 1-.78 2 3.06 3.06 0 0 0 2.27 1 3 3 0 0 0 0-6 3.06 3.06 0 0 0-2.27 1 3 3 0 0 1 .78 2zm-6.03-2.17a3 3 0 0 0 3 3 3 3 0 0 0 2.24-1 3 3 0 0 1 0-4 2.93 2.93 0 0 0-2.24-1 3 3 0 0 0-3 3zm-16.32 70.02-1.61 15c3.1-13.05 12.49-17.53 12.49-17.53a87 87 0 0 1-10.88 2.53z"/><path d="m99.02 310.14 17.08-159.4m12.18-3.06S116 153 105.06 149.62" class="cls-4"/><path d="M153.23 127.71s-12.11-2.43-67.22-4.77h67z"/><path d="M108.71 97.77s40.16 12.19 23.35 11.17-21.06-1.81-21.06-1.81m13.77-46.49a11.56 11.56 0 0 0 9.67-2.51A70.24 70.24 0 0 1 152.16 76m5.72 161.15 2.41 56.12" class="cls-4"/><path d="m144.74 33.15-.44 4.62a5.57 5.57 0 0 1 .44 4.67s4.13-4.72 1-13.35zm-21.01-9.05-2.9 7.21s-2.73-.22-3.1 4.45c0 0-.64-9.59 6-11.66z"/><path d="m124.57 19.23-2-1.11a27.51 27.51 0 0 1 13.77.43l-1.28-3.43s9 4.05 11.32 10.87l3.26.9c.57 3.21-1.08 5.28-4.9 6.26 0 0-3.77-.24-6.47-4.62l-.87 2.31s-5.64-2-7-5.53v2.41s-7.92 2.62-9.68-2.88a9.1 9.1 0 0 1 3.85-5.61z" class="cls-8"/><path d="M148.61 39.42s-2.25-1.39-3 4.54m.78-3.19.72 1.36m-30.84-11.78s2.34.07 0 4.68m-.66-1.88 1.53-1.41m1.31 97.1-1.84 17.17" class="cls-4"/><path d="M176.06 315.73H98.93v-5.6h77.13zm-77.13 0H26.15v-5.6h72.78zm26.43-7.19a20.75 20.75 0 0 0 12.9-4.62 1 1 0 1 0-1.33-1.46c-.4.36-10 8.81-22.75.5a1 1 0 0 0-1.09 1.66 22.26 22.26 0 0 0 12.27 3.92zm-50.06-.72a29.43 29.43 0 0 0 12.7-3.21 1 1 0 1 0-1-1.74c-.13.07-13 6.91-21.85-.57a1 1 0 1 0-1.28 1.51 17.18 17.18 0 0 0 11.43 4.01z"/><path d="m124.1 300.6 22.43 5.29c5.34-1.75 6.8-2.71 16.62 0L148.33 301s-3.21-6.19-11.87-6.19-12.36 5.79-12.36 5.79zm-46.23.4-22.68 4.36s-5.46-3.19-10.84-2.44l5-1.92s1.56-7.55 13.85-7.55S77.87 301 77.87 301z"/><path d="m176.06 310.14-27.73-9.12m-99.02 0-11.26 4.36M137.4 30.84s-8.76-2.58-7-8.78m0 5.66s-4 1.35-6 .41m11.94-9.58-1.28-3.43m7.94 5.55a16 16 0 0 1 3.38 5.33l-2.65-1.89.94 1.89m-23.95-1.16s1-6.43 6.06-5.8" class="cls-4"/><path d="M149.64 26.89s1.44 5-4.9 6.26c0 0-8.25-1.39-6.91-9m-15.26-6.03 2 1.11M99.75 303.68s-20.11-12.3-37.21-14.55m79.86.46s-23.11-3.31-36.32 6" class="cls-4"/><path d="M142.52 304.94c2.15-1.09 6.26-1.7 11.7-2l-20.4-.06 14.51-1.88s-5.92-3.87-24.23-.42m-46.23.42s-21.28-6.81-28.56 0c7.53-1.57 15.4-.78 23.39.79l-25.77.13a28.93 28.93 0 0 1 12 2.72" class="cls-26"/><path d="M140.27 299.17s20.59-8.07 15-11.32-15 11.32-15 11.32zm0 0s-4.05-9.33-13.06-9.56 13.06 9.56 13.06 9.56zM63.1 298s15.76-2.55 13.55-7.6S63.1 298 63.1 298zm0 0s-1.93-7.86-5.72-8.38S63.1 298 63.1 298z" class="cls-26"/><path d="m50.1 263.06-7.57 30.21m75.58 7.96a33.33 33.33 0 0 0-7 2.55c-3 1.62-9.34 2.05-9.34 2.05m-5.64-.18s-3.49-.3-5-1.46-7.25-3.14-10.65-3.07M62.9 88.06l-19.59 14.31" class="cls-4"/><path d="M383.2 311.75s48-4 31.06-52.86l-17.34-9.1-23.79 57.58zm-99.1-15.1s-63.33-7.95-24.85-75.16c0 0 80 9.06 24.85 75.16z"/><path fill="url(#linear-gradient-14)" d="m314.38 246.82-26.88-18.57a40.18 40.18 0 0 0-60.78 19.85l-17.31 53-22.12 11.78h76.28L279 283.09l187.78 29.75h64.68l-28.86-7.63-142.1-74.53z"/><path d="M463.18 284.55c-18.19 7.27-23.72 15.54-20.3 24.51l18.54 2.94 43.15-6.25-2-.53zM272.1 296.36s-20.8-36.12-54.1-21.62l-8.6 26.32 18.78 8.24 37.12.18z" class="cls-7"/><path d="M394.48 301.38a52.75 52.75 0 0 1 15.31-44.83l-49.29-25.86-46.11 16.14-26.89-18.58c-.48-.33-1-.65-1.46-1 10.27 26.59-2.93 56.45-2.93 56.45z"/><path d="M259.25 221.49s46.66 13 24.85 75.16l41.31-6.21 57.79 21.31s7.61-43.7 31.06-52.86l-53.76-28.21s-69.26-17.93-101.25-9.19z" class="cls-2"/><path d="M330.25 273.65c1.89 11.5-4.84 16.79-4.84 16.79m23.29-45.31 49.17 28.21" class="cls-4"/><path d="M259.25 221.49s46.66 13 24.85 75.16l41.31-6.21 57.79 21.31s7.61-43.7 31.06-52.86" class="cls-4"/><path d="M330.54 276.31s4.83 8.91 2.15 16.82l-7.28-2.69c3.76-3.34 5.22-8.22 5.13-14.13zm68.24-21.38s-15.53 8.54-24.6 36.38c0 0 5.82-35.09 24.6-36.38z"/><path d="m226.72 248.1-17.31 52.96m282.07-1.66-116.22-60.97m-77.04 47.71s7.47-16.68 0-32.23m-34.65 58.93 19.54-37.76" class="cls-4"/><path d="M502.57 305.21c-3-7.17-7.11-5.21-11.9 2.4L461.42 312l5.33.85h64.68zm-293.16-4.15s2.26-4.41 13-4.41a17.63 17.63 0 0 1 15.25 8.1l27.63 4.73-1.74 3.36h-76.26z"/><path d="m241.24 308.07-2.92 2.46m5.84-2.46-2.92 2.46m248.92-.67 2.59 1.18m-5.57-1.18 2.6 1.18" class="cls-28"/><path d="m237.68 304.75-19 1.62c-5-2.9-10.69-3.46-17.15-1.12l7.88-4.19s2.72-5.93 15-5.93 13.27 9.62 13.27 9.62z"/><path d="M187.29 312.84h76.28v2.9h-76.28zm279.46 0h64.67v2.9h-64.67z" class="cls-6"/><path d="M229.61 304.29s-9.93-4.55-20.2-3.23l12.14 3.23h-18.21l9.2 2.08m285.99.42 4.04-1.58-1.05 2.4 5.58-1.2v2.08l4.94-.77" class="cls-28"/><path d="M531.43 315.74h-64.68m-203.18 0h-76.28m265.32-5.14-37.52-5.95m37.3-14.8s-14.49 8-9.51 19.21m-176.08-20s-15.75-20.69-37.69-17.45m29.55-18.48s-16.56 3.76-23.41-2.67" class="cls-4"/><path d="M369.67 235.5S358.8 302.4 296 255.13l64.54-24.44z" class="cls-3"/><path fill="url(#linear-gradient-15)" d="m348.33 177.87 25.92-5.87a33.29 33.29 0 0 1 40.42 36.26l-3.74 32.6s31.19 13.67 18.75 26.11l-69.18-36.3z"/><path d="M411.88 232.62s-9 11.63-24.18 12.51l-27.2-14.45-1.81-7.86 53.86 3.92z"/><path d="m348.34 177.87 12.16 52.82L382.11 242c14.09 1.8 27.73-3.79 33.72-9.41v-25.22c.21-21.87-19.22-40.43-41.59-35.37z" class="cls-5"/><path d="m351.2 190.3.89 3.88c2.88-1 14.22-5 31.58-9.35 10.38-2.63 21.06 1.92 28.72 6.67a36.57 36.57 0 0 0-4.2-6.89c-7.44-3.55-16.45-5.91-25.5-3.63-16.69 4.24-27.93 8.02-31.49 9.32z"/><path d="m371.38 236.4 10.73 5.6a46.1 46.1 0 0 0 17-1.11C377.67 239.7 381 214.21 381 214.21z" class="cls-10"/><path d="m349.48 182.8.89 3.88c9.18-3.25 30.57-10.36 40-9.62a57.17 57.17 0 0 1 14 3.27 34 34 0 0 0-10.76-6.88c-1-.15-2-.27-2.93-.34-10.12-.77-31.57 6.29-41.2 9.69z"/><path d="m383.19 209.25-11.81 27.15m15.1-18.14-10.9 8.48m45.74 27.17s8.17 4.44 3.33 10.43M428 256s5.32 5.3 1.65 10.94m-25.32-22.23s5.6-1.17 6.6-3.84c0 0 9.95 4 14.69 8.92M382.11 242c23.1 1.81 33.73-9.41 33.73-9.41v-25.22m-5.55 17.16s-14.27 10-29.26 4.19" class="cls-4"/><path d="M273.56 214.63a47.81 47.81 0 1 0 47.81-47.81 47.81 47.81 0 0 0-47.81 47.81z"/><path fill="none" stroke="#ff8f15" stroke-linecap="round" stroke-linejoin="round" stroke-width=".8" d="M338.19 174.26s7.48 25.84-6 26.82c-14.86 1.09-16.25-29.91-16.25-29.91"/><path d="M289.84 260.68a1.49 1.49 0 0 0 1.19-.6c10.53-14.3 13.6-30.18 16.57-45.54 1.66-8.59 3.23-16.7 6-24a45.29 45.29 0 0 1 5.81-10.72 1.48 1.48 0 1 0-2.38-1.77 48.11 48.11 0 0 0-6.2 11.42c-2.91 7.54-4.5 15.78-6.19 24.5-2.9 15-5.91 30.58-16 44.34a1.47 1.47 0 0 0 .32 2.07 1.43 1.43 0 0 0 .88.3zm51.59 17.82a2 2 0 0 0 1.9-1.44c10.11-36.15 11.35-65.62 3.69-87.6a2 2 0 1 0-3.74 1.31c5.08 14.57 8.55 41.18-3.76 85.22a2 2 0 0 0 1.91 2.51z" class="cls-7"/><path d="M330.75 168.31s-11.9 4.59-18.5 21.71c-8.81 22.85-5.63 53.69-29.14 77-.18-17.8-12.23-35.7-23.86-45.49 0-.04 21.6-69.11 71.5-53.22zm0 0s37.11 23.39 8.12 116.87c0 0 23.65-17 30.3-39.68s11.48-71.35-38.42-77.19z" class="cls-5"/><path d="M349.23 236.41c-1.3 13.62-4.46 29.73-10.36 48.76 0 0 23.66-17 30.3-39.67a105.27 105.27 0 0 0 3.12-14.5 101.29 101.29 0 0 1-23.06 5.41zm-89.97-14.92c11.62 9.79 23.67 27.69 23.85 45.49 12-11.91 17.08-25.82 20.32-39.61-15.76-9.58-22.86-24.93-25.55-40.45-12.73 15.74-18.62 34.57-18.62 34.57z" class="cls-6"/><path d="M369.25 194.8c6.83 16.95 3.66 37.92-.08 50.7-6.65 22.7-30.3 39.68-30.3 39.68s8.69-24.88 9.83-46.75" class="cls-4"/><path d="M292.39 202.48a4.95 4.95 0 1 0 4.94-4.95 4.95 4.95 0 0 0-4.94 4.95z" class="cls-6"/><path d="m291.76 259.08.48 11.07a1.86 1.86 0 1 0 3.68-.42l-2.48-13.14zm1.36 10.65a.73.73 0 0 1 .74-.73.73.73 0 1 1 0 1.46.74.74 0 0 1-.74-.73z" class="cls-7"/><path d="m293.44 256.59 2.48 13.14a1.93 1.93 0 0 1-1.24 2.21" class="cls-4"/><circle cx="293.86" cy="269.73" r=".74" class="cls-4"/><path d="M312.25 190c-7.28 18.89-6.37 43.25-19.13 64.28M368 232.45a75 75 0 0 1-12.44 3.05m-52.13-8.13s-7.51-3.73-15-14.05" class="cls-4"/><path d="M340.68 231s-4.68-8.63-12.68-9.89-15.75 5-15.75 5 6.29 6.88 13.16 7.91 15.27-3.02 15.27-3.02z" class="cls-7"/><path d="M322.29 227.92a4.95 4.95 0 1 0 4.94-4.95 4.94 4.94 0 0 0-4.94 4.95z"/><path d="M287.29 262.43s-2.57 2.93-4.18 4.55c0 0-.18-13.56-7.52-25.54-1.18-1.93-2.31-3.6-3.36-5l-1.5-2" class="cls-4"/><path fill="url(#linear-gradient-16)" d="m408.83 256-1 .64c-3.35 2.23-9.09 3.91-12.7-2 0 0 3.53-2.45 7.83-4.94 6.27-3.63 9.39-1.83 9.39-1.83s8.04 8.29-3.52 8.13z"/><path d="m408.83 256-1 .64c-3.35 2.23-9.09 3.91-12.7-2 0 0 3.53-2.45 7.83-4.94" class="cls-4"/><path d="M283.11 220.81s-25.19 15.9-42.74-11.56l-4.8-16.88 47.77 18.22z"/><path fill="url(#linear-gradient-17)" d="M232.8 181.65c-9.47-21.15 12.07-42.88 33.3-33.59l7.46 44.19-2.32 30.57 2.32 2.82a12.33 12.33 0 0 1-2.83 8.8 34.28 34.28 0 0 0-5.39-5.53 14.38 14.38 0 0 0-12.28-3l-11.92 2.8s-4.44-7.19 0-10.46a22.83 22.83 0 0 1 6.59-3.28z"/><path d="M246.43 212.1s4.55-15.81 27.61-.8l9.3-.71s-19.77-22.11-43-12z"/><path d="M231.73 178.89a.39.39 0 0 1 .05.13l8.59 30.23a24.31 24.31 0 0 1 3.31-3.28c13.09-10.6 28.79 3.13 35.77 10.6 2.3 2.45 3.66 4.24 3.66 4.24l.1-16.8c12.12-4.76 25.65-18.44 25.46-31.45l6.33-6.63-48.9-17.87c-20.31-8.88-40.89 10.61-34.37 30.83z" class="cls-5"/><path d="m283.39 174.26-.28 46.55s-24.52-32.61-42.74-11.56l-8.64-30.36m54.87 9.24-3.33 6.01" class="cls-4"/><path d="M247.42 158.74c4.52 17.12 9.08 34.63 11.5 43.95a27.67 27.67 0 0 1 5.68 2.17c-2-7.82-7.24-27.88-12.39-47.39-1.24-4.67-1.07-8.5.5-11.41a23.82 23.82 0 0 0-5.82 1.49 23.43 23.43 0 0 0 .53 11.19zm-12.17-2.09c2.07 12.06 7.82 35.67 10.8 47.67a16 16 0 0 1 4.65-1.84c-3.4-13.73-10.1-41.35-11.17-50.52a25.42 25.42 0 0 0-4.28 4.69z"/><path d="m315 165.93-48.9-17.87m3.49 72.75 4 4.83s-.08 6.53-2.83 8.8m-6.16-9.91a71.24 71.24 0 0 0-11.54 1.39l-11.92 2.8m12.58-11.31s-6.46 3.21-3.67 9.22m-3.62-7.54s-5.83 2.59-1.87 8.83m8.31-13.7s6.78-.24 9.67 1.56l-7.83-3.68" class="cls-4"/><path d="M270.73 234.44c-4.63-5.8-7.58-6.92-7.58-6.92a14.11 14.11 0 0 0-9.14-1.81M277 202.48s-21.33-25.17-36.58-10.11" class="cls-4"/><circle cx="329.79" cy="183.33" r="9.66" fill="url(#linear-gradient-18)"/><circle cx="335.69" cy="174.61" r="14.33" fill="url(#linear-gradient-19)" transform="matrix(.97 -.23 .23 .97 -31 81.27)"/><path d="M341.55 158c9.19 2.22 16.46 12.16 9 24.78A17.14 17.14 0 0 1 345 186c.37-.78 1.05-2.76.7-3.8a4.83 4.83 0 0 1-2.78 3.37 13.5 13.5 0 0 1-5.66-1.18l1.6-2.68-3.55 1.68c-.35-.22-.72-.45-1.08-.7l1-1.69-1.95 1a29.14 29.14 0 0 1-2.79-2.49l2-2a17.34 17.34 0 0 0-3 .92c-.48-.54-1-1.09-1.44-1.7l-3.66.78-3-2.85s-.49-7.33 3.24-12.77l.53-1.77c11.1-10.35 16.39-2.12 16.39-2.12z"/><path d="m321.36 174.62 3 2.84 3.39-.72.38-.66s-2.85-1.8-2.62-6.75l1.75-2.51-2.56.91a20.39 20.39 0 0 1-.06-5.89c-4.4 5.56-3.28 12.78-3.28 12.78z" class="cls-16"/><path fill="url(#linear-gradient-20)" d="M320.23 171.12c-.94 2-.48 4.26 1 5s3.5-.38 4.45-2.42.47-4.25-1-4.95-3.51.34-4.45 2.37z"/><path d="M323 170.21a1.38 1.38 0 0 1 1.62 1.46c0 1.7-1.88 3.16-1.88 3.16m-.45-2.11 2.23-.44m-3.25 3.8a20.34 20.34 0 0 0 2.3 6.39m1.04-20.63s-2.56 3.28-2.94 6.47m-29.28 34.17a4.95 4.95 0 1 0 4.94-4.95 4.95 4.95 0 0 0-4.94 4.95z" class="cls-4"/><path d="M205.92 198.75s-.46 2-2.7 13.55c0 0 13 0 10.38 10.6 0 0 13.63 9.14 1.2 18.1s-39.21 10-39.21 10-30.46-21.31-31-25.7 5.21-16.59 14-19.75c0 0-1.79-4.77 2.19-6.66a48 48 0 0 1 8.17-2.88l6.7-12.77z"/><path fill="url(#linear-gradient-21)" d="m232.1 267.55 116.65 28.97 17.23-1.84-7.71 21.06H181.6l50.5-48.19z"/><path d="M181.59 315.74h29.83c28.34-10.53 45.33-37.73 47.65-41.52l-52.54-12.33z"/><path d="M259.07 274.22s-10.81 18.7-24.1 16.08-21.75 25.44-21.75 25.44H181.6l24.93-54.38z" class="cls-6"/><path d="M232.65 275.57a1.66 1.66 0 1 0-.93-2.15 1.66 1.66 0 0 0 .93 2.15z" class="cls-10"/><path d="M233.87 272.49a1.65 1.65 0 1 0-.93-2.14 1.64 1.64 0 0 0 .93 2.14zm1.86 4.3a1.66 1.66 0 1 0-.93-2.15 1.66 1.66 0 0 0 .93 2.15z" class="cls-10"/><path d="M237 273.71a1.65 1.65 0 0 0 1.21-3.08 1.65 1.65 0 1 0-1.21 3.08z" class="cls-10"/><path d="M233.73 273.83a1.83 1.83 0 1 0 1-2.4 1.82 1.82 0 0 0-1 2.4z" class="cls-6"/><path fill="#3d7aa0" d="M197.92 315.74h15.3s8.48-28.08 21.78-25.44 24.1-16.08 24.1-16.08l-11-2.7c-1.46 2.82-4.92 6-12.48 8.73-17.88 6.34-27.42.49-37.7 35.49z"/><path d="m232.1 267.55 93.76 23.19m-38.45-2.56s1.68 11.63-9.21 15.62m-19.13-29.58s-7.82 14.09-19.25 16.14m3-13.55s-5.38 3.39-9 4" class="cls-4"/><path d="M366 294.68s-11.45-5.48-15.28 7.19c-2.61 8.65 4.4 13.87 4.4 13.87h3.17z" class="cls-5"/><path d="m167.21 208.87 9.53 36.33 21.18-7.32c-2.8-8.72-1.4-16.18-10.29-21.79-7.04-4.45-14.63-7.22-20.42-7.22zm-56.19 106.87h101.93v-45.87l-70.3 3.25-31.63 42.62z"/><path fill="url(#linear-gradient-22)" d="M163.89 208.75s13.93-1.42 10.14-9.37l17.72 6.39s-9.46 1.82-4.4 10.24c2.68 4.75 3.64 18.32-.8 18.2-6.76-.18-11.41-16-29.92-23.83a50.64 50.64 0 0 1 7.26-1.63z"/><path d="M176.22 202.4s2.85 6.62 9.86 7.68c1-3.42 5.66-4.31 5.66-4.31l-15.2-5.49z"/><path fill="url(#linear-gradient-23)" d="M163.36 315.74h86.09l-12.45-8.5-5.6-44.35a22.83 22.83 0 0 0-31.19-18.32l-58.59 29a31.89 31.89 0 0 0 21.74 42.17z"/><path d="M168.86 299.45s-2.37 12.54 6.75 16.29h-25.4v-19z"/><path d="m141.64 273.08-.88-46.95a27.07 27.07 0 0 1 15.87-15.75c18.51 7.81 26.71 25.68 33.37 26.86 8.89 1.56.29-15.92-2.49-21 9 5.65 17.16 13.85 19.9 22.41l1.1 4.21a23 23 0 0 0-8.27 1.66l-18.65 9.22a42.41 42.41 0 0 0-9.23 31.13c3.18 28-41.51 30.82-41.51 30.82H111z" class="cls-8"/><path d="M172.22 258.42s-9.45 3.47-17.28-6.58c1.57 8.11-1 13.76-5.86 18z" class="cls-6"/><g clip-path="url(#clip-path)"><path d="M176.31 243.51a1.66 1.66 0 0 0 1-3.17 1.66 1.66 0 1 0-1 3.17z" class="cls-5"/><path d="M177.27 240.34a1.65 1.65 0 1 0-1.11-2.06 1.65 1.65 0 0 0 1.11 2.06zm2.21 4.13a1.66 1.66 0 1 0-1.11-2.06 1.65 1.65 0 0 0 1.11 2.06z" class="cls-5"/><path d="M180.44 241.3a1.65 1.65 0 1 0-1.11-2.06 1.66 1.66 0 0 0 1.11 2.06z" class="cls-5"/><path d="M177.24 241.69a1.83 1.83 0 1 0 .75-2.48 1.83 1.83 0 0 0-.75 2.48z" class="cls-8"/><path d="M186.72 240.26A1.66 1.66 0 1 0 187 237a1.66 1.66 0 0 0-.29 3.3z" class="cls-5"/><path d="M187 237a1.66 1.66 0 1 0-1.5-1.8 1.66 1.66 0 0 0 1.5 1.8zm3 3.55a1.66 1.66 0 1 0-1.5-1.8 1.66 1.66 0 0 0 1.5 1.8z" class="cls-5"/><path d="M190.31 237.25a1.66 1.66 0 1 0-1.5-1.8 1.66 1.66 0 0 0 1.5 1.8z" class="cls-5"/><path d="M187.26 238.28a1.83 1.83 0 1 0 .23-2.58 1.83 1.83 0 0 0-.23 2.58z" class="cls-8"/><path d="M171.91 228a1.65 1.65 0 1 0 1.85-2.74 1.65 1.65 0 1 0-1.85 2.74zm1.85-2.79a1.66 1.66 0 1 0-.44-2.3 1.66 1.66 0 0 0 .44 2.3z" class="cls-5"/><path d="M174.65 229.8a1.65 1.65 0 1 0-.44-2.29 1.65 1.65 0 0 0 .44 2.29z" class="cls-5"/><path d="M176.5 227.06a1.66 1.66 0 1 0-.44-2.3 1.65 1.65 0 0 0 .44 2.3z" class="cls-5"/><path d="M173.34 226.48a1.83 1.83 0 1 0 1.45-2.14 1.83 1.83 0 0 0-1.45 2.14z" class="cls-8"/><path d="M154.51 226.87a1.66 1.66 0 1 0 1-2.11 1.66 1.66 0 0 0-1 2.11z" class="cls-5"/><path d="M157.64 225.78a1.65 1.65 0 1 0 1-2.1 1.64 1.64 0 0 0-1 2.1zM155.6 230a1.65 1.65 0 1 0 1-2.11 1.66 1.66 0 0 0-1 2.11z" class="cls-5"/><path d="M158.72 228.91a1.66 1.66 0 1 0 1-2.11 1.67 1.67 0 0 0-1 2.11z" class="cls-5"/><path d="M156.54 226.55a1.83 1.83 0 1 0 2.44-.85 1.82 1.82 0 0 0-2.44.85z" class="cls-8"/><path d="M197.22 244.37a1.66 1.66 0 1 0 1.94-2.69 1.66 1.66 0 0 0-1.94 2.69z" class="cls-5"/><path d="M199.16 241.68a1.65 1.65 0 1 0-.37-2.31 1.65 1.65 0 0 0 .37 2.31zm.75 4.62a1.65 1.65 0 1 0-.37-2.31 1.65 1.65 0 0 0 .37 2.31z" class="cls-5"/><path d="M201.85 243.62a1.66 1.66 0 1 0-.38-2.31 1.65 1.65 0 0 0 .38 2.31z" class="cls-5"/><path d="M198.7 242.94a1.83 1.83 0 1 0 1.51-2.09 1.82 1.82 0 0 0-1.51 2.09z" class="cls-8"/><path d="M201 233.92a1.65 1.65 0 1 0-.38-2.31 1.65 1.65 0 0 0 .38 2.31z" class="cls-5"/><path d="M203 231.24a1.66 1.66 0 1 0-.37-2.31 1.66 1.66 0 0 0 .37 2.31zm.7 4.62a1.66 1.66 0 1 0-.37-2.31 1.66 1.66 0 0 0 .37 2.31z" class="cls-5"/><path d="M205.64 233.17a1.65 1.65 0 1 0-.38-2.31 1.65 1.65 0 0 0 .38 2.31z" class="cls-5"/><path d="M202.49 232.5a1.83 1.83 0 1 0 1.51-2.1 1.83 1.83 0 0 0-1.51 2.1z" class="cls-8"/><path d="M152.84 275.72a1.67 1.67 0 0 0 2.34 0 1.65 1.65 0 0 0-2.34-2.34 1.67 1.67 0 0 0 0 2.34z" class="cls-5"/><path d="M155.18 273.38a1.67 1.67 0 0 0 2.34 0 1.65 1.65 0 0 0-2.34-2.34 1.67 1.67 0 0 0 0 2.34zm0 4.68a1.67 1.67 0 0 0 2.34 0 1.65 1.65 0 1 0-2.34-2.34 1.67 1.67 0 0 0 0 2.34z" class="cls-5"/><path d="M157.52 275.72a1.67 1.67 0 0 0 2.34 0 1.65 1.65 0 0 0-2.34-2.34 1.67 1.67 0 0 0 0 2.34z" class="cls-5"/><path d="M154.52 274.55a1.83 1.83 0 1 0 1.83-1.83 1.82 1.82 0 0 0-1.83 1.83z" class="cls-8"/><circle cx="157.32" cy="292.77" r="1.66" class="cls-5" transform="rotate(-8.69 157.323 292.716)"/><path d="M159 292.93a1.66 1.66 0 1 0 1.81-1.49 1.66 1.66 0 0 0-1.81 1.49zm-3.63 2.99a1.65 1.65 0 1 0 1.8-1.5 1.65 1.65 0 0 0-1.8 1.5z" class="cls-5"/><path d="M158.66 296.23a1.66 1.66 0 1 0 1.81-1.5 1.67 1.67 0 0 0-1.81 1.5z" class="cls-5"/><path d="M157.65 293.17a1.83 1.83 0 1 0 2.58.24 1.82 1.82 0 0 0-2.58-.24z" class="cls-8"/><path d="M184.07 250.93a1.64 1.64 0 0 0 2.33.22 1.65 1.65 0 1 0-2.11-2.55 1.64 1.64 0 0 0-.22 2.33z" class="cls-5"/><path d="M186.62 248.82a1.65 1.65 0 1 0 .22-2.33 1.65 1.65 0 0 0-.22 2.33zm-.45 4.66a1.66 1.66 0 1 0 .23-2.33 1.65 1.65 0 0 0-.23 2.33z" class="cls-5"/><path d="M188.73 251.38a1.65 1.65 0 1 0 2.55-2.11 1.65 1.65 0 0 0-2.55 2.11z" class="cls-5"/><path d="M185.85 249.93a1.83 1.83 0 1 0 2-1.65 1.83 1.83 0 0 0-2 1.65z" class="cls-8"/><path d="M189.15 223.31a1.65 1.65 0 0 0 2.34 0 1.67 1.67 0 0 0 0-2.34 1.65 1.65 0 1 0-2.34 2.34z" class="cls-5"/><path d="M191.49 221a1.67 1.67 0 0 0 2.34 0 1.65 1.65 0 1 0-2.34 0zm0 4.65a1.65 1.65 0 1 0 0-2.34 1.65 1.65 0 0 0 0 2.34z" class="cls-5"/><path d="M193.83 223.31a1.65 1.65 0 1 0 0-2.34 1.65 1.65 0 0 0 0 2.34z" class="cls-5"/><path d="M190.83 222.14a1.83 1.83 0 1 0 1.83-1.83 1.83 1.83 0 0 0-1.83 1.83z" class="cls-8"/><path d="M129.17 286.54a1.66 1.66 0 0 0 3.21-.83 1.66 1.66 0 1 0-3.21.83z" class="cls-5"/><path d="M132.38 285.71a1.65 1.65 0 1 0 3.2-.83 1.65 1.65 0 1 0-3.2.83zm-2.38 4.03a1.66 1.66 0 1 0 1.19-2 1.66 1.66 0 0 0-1.19 2z" class="cls-5"/><path d="M133.21 288.91a1.65 1.65 0 1 0 1.19-2 1.65 1.65 0 0 0-1.19 2z" class="cls-5"/><path d="M131.22 286.38a1.83 1.83 0 1 0 2.5-.64 1.82 1.82 0 0 0-2.5.64z" class="cls-8"/><path d="M153.46 246.59a1.65 1.65 0 1 0 0-2.34 1.66 1.66 0 0 0 0 2.34z" class="cls-5"/><path d="M155.84 244.29a1.65 1.65 0 1 0 0-2.34 1.66 1.66 0 0 0 0 2.34zm-.07 4.71a1.65 1.65 0 1 0 0-2.34 1.66 1.66 0 0 0 0 2.34z" class="cls-5"/><path d="M158.14 246.66a1.65 1.65 0 1 0 0-2.34 1.66 1.66 0 0 0 0 2.34z" class="cls-5"/><path d="M155.16 245.45a1.83 1.83 0 1 0 1.86-1.8 1.82 1.82 0 0 0-1.86 1.8z" class="cls-8"/><path d="M164.28 237.32a1.65 1.65 0 1 0 0-2.34 1.66 1.66 0 0 0 0 2.34z" class="cls-5"/><path d="M166.65 235a1.65 1.65 0 1 0 0-2.34 1.67 1.67 0 0 0 0 2.34zm-.06 4.69a1.65 1.65 0 1 0 0-2.34 1.65 1.65 0 0 0 0 2.34z" class="cls-5"/><path d="M169 237.39a1.66 1.66 0 1 0 0-2.34 1.66 1.66 0 0 0 0 2.34z" class="cls-5"/><path d="M166 236.17a1.83 1.83 0 1 0 1.85-1.8 1.83 1.83 0 0 0-1.85 1.8z" class="cls-8"/><path d="M144 252.59a1.65 1.65 0 1 0 .85-2.17 1.64 1.64 0 0 0-.85 2.17z" class="cls-5"/><path d="M147 251.28a1.66 1.66 0 1 0 .86-2.18 1.66 1.66 0 0 0-.86 2.18zm-1.69 4.35a1.66 1.66 0 1 0 .86-2.18 1.66 1.66 0 0 0-.86 2.18z" class="cls-5"/><path d="M148.35 254.31a1.66 1.66 0 1 0 .86-2.17 1.65 1.65 0 0 0-.86 2.17z" class="cls-5"/><path d="M146 252.12a1.83 1.83 0 1 0 2.37-1 1.84 1.84 0 0 0-2.37 1z" class="cls-8"/><path d="M151.35 263a1.66 1.66 0 1 0-.28-2.32 1.66 1.66 0 0 0 .28 2.32z" class="cls-5"/><path d="M153.4 260.44a1.65 1.65 0 1 0-.29-2.32 1.66 1.66 0 0 0 .29 2.32zm.6 4.65a1.66 1.66 0 1 0-.28-2.33 1.65 1.65 0 0 0 .28 2.33z" class="cls-5"/><path d="M156 262.48a1.65 1.65 0 1 0-.28-2.32 1.64 1.64 0 0 0 .28 2.32z" class="cls-5"/><path d="M152.88 261.68a1.83 1.83 0 1 0 1.6-2 1.83 1.83 0 0 0-1.6 2z" class="cls-8"/><path d="M168.28 255.91a1.66 1.66 0 1 0-.93-2.15 1.65 1.65 0 0 0 .93 2.15z" class="cls-5"/><path d="M169.5 252.83a1.66 1.66 0 1 0-.93-2.15 1.66 1.66 0 0 0 .93 2.15zm1.86 4.3a1.66 1.66 0 1 0-.93-2.15 1.66 1.66 0 0 0 .93 2.15z" class="cls-5"/><path d="M172.58 254.05a1.66 1.66 0 1 0-.93-2.15 1.66 1.66 0 0 0 .93 2.15z" class="cls-5"/><path d="M169.36 254.17a1.83 1.83 0 1 0 .95-2.41 1.84 1.84 0 0 0-.95 2.41z" class="cls-8"/><path d="M141.93 297.24a1.66 1.66 0 1 0-.6-2.26 1.65 1.65 0 0 0 .6 2.26z" class="cls-5"/><path d="M143.6 294.38a1.65 1.65 0 1 0-.6-2.26 1.65 1.65 0 0 0 .6 2.26zm1.19 4.53a1.65 1.65 0 1 0-.6-2.26 1.65 1.65 0 0 0 .6 2.26z" class="cls-5"/><path d="M146.45 296.05a1.66 1.66 0 1 0-.59-2.26 1.66 1.66 0 0 0 .59 2.26z" class="cls-5"/><path d="M143.26 295.68a1.83 1.83 0 1 0 1.3-2.23 1.83 1.83 0 0 0-1.3 2.23z" class="cls-8"/><path d="M131.25 308.77a1.66 1.66 0 1 0-.24-2.33 1.65 1.65 0 0 0 .24 2.33z" class="cls-5"/><path d="M133.34 306.2a1.65 1.65 0 1 0-.25-2.33 1.66 1.66 0 0 0 .25 2.33zm.48 4.66a1.66 1.66 0 0 0 2.33-.25 1.65 1.65 0 1 0-2.33.25z" class="cls-5"/><path d="M135.91 308.29a1.66 1.66 0 1 0-.25-2.33 1.66 1.66 0 0 0 .25 2.33z" class="cls-5"/><path d="M132.8 307.43a1.83 1.83 0 1 0 1.63-2 1.83 1.83 0 0 0-1.63 2z" class="cls-8"/><path d="M118.93 299.4a1.65 1.65 0 1 0 1.23-2 1.65 1.65 0 0 0-1.23 2z" class="cls-5"/><path d="M122.15 298.64a1.65 1.65 0 1 0 1.23-2 1.65 1.65 0 0 0-1.23 2zm-2.46 3.98a1.65 1.65 0 1 0 1.23-2 1.65 1.65 0 0 0-1.23 2z" class="cls-5"/><path d="M122.91 301.86a1.65 1.65 0 1 0 1.23-2 1.65 1.65 0 0 0-1.23 2z" class="cls-5"/><circle cx="122.53" cy="300.25" r="1.83" class="cls-8"/><path d="M143.74 283.56a1.66 1.66 0 1 0-1.39-1.88 1.66 1.66 0 0 0 1.39 1.88z" class="cls-5"/><path d="M144.23 280.28a1.65 1.65 0 1 0-1.4-1.88 1.66 1.66 0 0 0 1.4 1.88zM147 284a1.65 1.65 0 1 0-1.39-1.88A1.65 1.65 0 0 0 147 284z" class="cls-5"/><path d="M147.5 280.77a1.66 1.66 0 1 0-1.39-1.88 1.66 1.66 0 0 0 1.39 1.88z" class="cls-5"/><path d="M144.39 281.62a1.83 1.83 0 1 0 .38-2.56 1.82 1.82 0 0 0-.38 2.56z" class="cls-8"/><path d="M160.3 216.65a1.65 1.65 0 1 0 2.34-2.34 1.67 1.67 0 0 0-2.34 0 1.65 1.65 0 0 0 0 2.34z" class="cls-5"/><path d="M162.64 214.31a1.65 1.65 0 1 0 0-2.34 1.65 1.65 0 0 0 0 2.34zm0 4.69a1.65 1.65 0 0 0 2.34-2.34 1.67 1.67 0 0 0-2.34 0 1.65 1.65 0 0 0 0 2.34z" class="cls-5"/><path d="M165 216.65a1.65 1.65 0 0 0 2.34-2.34 1.65 1.65 0 0 0-2.34 2.34z" class="cls-5"/><path d="M162 215.48a1.83 1.83 0 1 0 1.83-1.83 1.83 1.83 0 0 0-1.83 1.83z" class="cls-8"/><circle cx="166.49" cy="246.09" r="1.19" class="cls-7"/><path d="M155.44 235.88a1.2 1.2 0 1 0 1.19-1.19 1.19 1.19 0 0 0-1.19 1.19zm9.39-11.06a1.19 1.19 0 1 0 1.19-1.19 1.2 1.2 0 0 0-1.19 1.19z" class="cls-7"/><circle cx="179.49" cy="233.02" r="1.19" class="cls-7"/><circle cx="178.19" cy="249.27" r="1.19" class="cls-7"/><path d="M195.59 228a1.2 1.2 0 1 0 1.19-1.19 1.19 1.19 0 0 0-1.19 1.19zm-37.91 24.79a1.19 1.19 0 1 0 1.19-1.19 1.19 1.19 0 0 0-1.19 1.19zm1.56 15.41a1.19 1.19 0 1 0 1.19-1.19 1.19 1.19 0 0 0-1.19 1.19zm-12.49-2.34a1.19 1.19 0 1 0 1.19-1.19 1.19 1.19 0 0 0-1.19 1.19z" class="cls-7"/><circle cx="155.65" cy="285.04" r="1.19" class="cls-7"/><circle cx="139.97" cy="287" r="1.19" class="cls-7"/><path d="M133 298.7a1.19 1.19 0 1 0 1.19-1.19 1.19 1.19 0 0 0-1.19 1.19z" class="cls-7"/><circle cx="126.83" cy="293.95" r="1.19" class="cls-7"/><circle cx="122.8" cy="306.83" r="1.19" class="cls-7"/></g><path d="M150.21 246.35s-1.16 16.07-8.57 23v-13.72z"/><circle cx="186.55" cy="192.42" r="14.33" fill="url(#linear-gradient-24)" transform="rotate(-13.8 186.618 192.455)"/><path d="M174.91 182s.1-9.92 14.74-6.55 17.42 15.4 16.27 23.35-7.25 4.75-11.5 4.47c-4.79-.31-2.56-6.83-2.56-6.83a14.5 14.5 0 0 1-8-11.21 4.59 4.59 0 0 0-1.56 3.44 7.43 7.43 0 0 1 1.3-7.28c-6.8 1.33-8.69.61-8.69.61z"/><path d="m190 295.21-4.28-3.53" class="cls-4"/><path d="M111 315.73h19.83s44.69-2.82 41.51-30.82a42.4 42.4 0 0 1 9.24-31.12l-15.52 7.68s-7.44 14.9-5.15 25.46c2.72 12.55-29.83 24.87-44.58 21.38z" class="cls-16"/><path fill="url(#linear-gradient-25)" d="M54.22 310.61h2c2.84-4.93 9.52-5.15 9.52-5.15l78.07-86c19-20.06 14.39 13.45-2.29 46.76l-48.95 46.6a10.6 10.6 0 0 1-7.3 2.91H49.1a5.12 5.12 0 0 1 5.12-5.12z"/><path d="m237 307.24-5.6-44.35a22.76 22.76 0 0 0-14.27-18.38m-44.91 13.91s-6.54 2.13-11.45-1.51m64.38 6.15s-2.09 1.08-11.79-1.6M94.89 310.61l46.62-44.35c16.68-33.31 21.34-66.82 2.29-46.76M111 315.73h19.83s44.69-2.82 41.51-30.82a42.4 42.4 0 0 1 9.24-31.12m-35.27 17.45-4.67 1.84-18.12 25.24" class="cls-4"/><path fill="url(#linear-gradient-26)" d="M217 243.24s-2.44-7.27-12.63-8.67c-7.44-1-11.43 2.47-13.56 6.23a15.78 15.78 0 0 0-1.44 11.61l1.76 7.06a5.27 5.27 0 0 0 7.14 3.59c2.17-1.54.78-5.18.78-5.18 3 2 5.33 1.09 7.16-2l2.76-.76c4.84-1.34 8.68-6.73 8.03-11.88z"/><path d="m199.08 257.88-2.3-10.17m8.03-2.68 1.43 10.86m7.67-11.46.17 7.41M163 269.16c-1.72 5.2-3.29 12.11-2.06 17.77 1.51 7-7.91 13.9-19.1 18.06m45.47-54.03-33.67 16.65m2.99-57.23s10 3.49 21 15.29c0 0 10.41 14.78 15.42 10.93m-6.5-22.56 4.94 11.61m-69.25 51-7.89-6.77 3.95 6.77m9.63-39.67-65.11 71.68m-6.61 1.95h2.59m16.2 3.17s-1 2-4.74 2m15.01-.05H49.13" class="cls-4"/><path d="M249.45 315.74s1.07-11.94-14-11.94c-9.29 0-11.77 6.68-11.77 6.68l-26.86 1.28c-.17-2.39-2.29-3.94-5.34-5.42l1.22 9.4z" class="cls-5"/><path d="m192.66 315.74-4.51-34.84m157.6 19.66s-2.72 1.21-.63 6.68m-13.31 8.5h26.46l7.71-21.06m-193.76 21.06h77.23s.42-7.52-6.3-10.36" class="cls-4"/><path d="M183.59 181.34s-5.81 13.1 19.53 20.74c0 0-14.76-8.7-19.53-20.74z" class="cls-7"/><path fill="url(#linear-gradient-27)" d="M194.38 198.47c-2 .94-3.12 2.93-2.42 4.45s2.92 2 4.95 1 3.12-2.93 2.42-4.44-2.91-1.95-4.95-1.01z"/><path d="M198.3 200.28a2 2 0 0 0-1.6-1.16c-1.07 0-3.45 1-3.64 2.29m2.59.67v-2.7" class="cls-4"/><path d="M183.59 181.34s1 11.2 4.77 16.89c0 0-10.73-9.93-4.77-16.89zm0 0s-7.57.51-10.69 6.72c0 0-.53-11.33 10.69-6.72z" class="cls-7"/><path d="M231.41 304.27s-7.71 1.78-8.24 8.67m133.17-18.55s-8 4-5.65 14.93M188.36 198.23c-11.14-10.93-4.77-16.89-4.77-16.89s-8.14.58-10.69 6.72m10.31-1.51s.47 4.62 6.32 9.24" class="cls-4"/><path d="M94.31 311.61H95a1 1 0 0 0-.14-2c-.64.05-15.66.9-18.89-14.54a1 1 0 0 0-1.94.4c3.16 15.25 17.09 16.14 20.28 16.14z" class="cls-7"/><path d="M165.28 268.43a3.58 3.58 0 1 0 2.68-3.75 3.27 3.27 0 0 0-2.68 3.75zm81.96 7.25a3.58 3.58 0 1 0 4.5-1 3.28 3.28 0 0 0-4.5 1zm-9.6 5.66a3.53 3.53 0 1 0 5.09.54 3.61 3.61 0 0 0-5.09-.54zM163 286.52a3.58 3.58 0 1 0 3.58-2.9 3.29 3.29 0 0 0-3.58 2.9zm-9.62 14.34a3.58 3.58 0 1 0 4.42 1.3 3.28 3.28 0 0 0-4.42-1.3zm-18.12 7.37a2.8 2.8 0 1 0 2.42 2.67 2.56 2.56 0 0 0-2.42-2.67zm-16.4 1.62a2.24 2.24 0 1 0 1.25 2.6 2.06 2.06 0 0 0-1.25-2.6z" class="cls-4"/><path fill="url(#linear-gradient-28)" d="m426.34 243.6-2.93-14.88s4.37-1.79 5.68.69 16.74 24.82 16.74 24.82z"/><path d="M398 278.5s11.78-24.4 47.86-9.59v16.7S404.57 301 398 278.5z" class="cls-5"/><path d="M451.27 279.58s-5.69-2.82-5.69-9.08c0 0-3.12-1.18-2.81-5.59s13-23.21 13-23.21 6.23-9.65 22.53-3.21c19 7.49 6.41 28.86 6.41 28.86z"/><path d="M577.72 104.81s18.64-25.67 50.52 5.63L625.05 151l-55.72-7.62zm60.87 186.5s-2.15 24.42-53.81 24.42v-35.57l47.88-5.08z" class="cls-5"/><path fill="url(#linear-gradient-29)" d="m425.53 235.26 20.3 19 .17 35.62 16-20.72c13.45 0 36.16-6.24 40.25 6.57l12.79 40h-84.8a21.26 21.26 0 0 1-19.66-29.33l13.29-32.4s-.56-12.76-7.31-19a6.8 6.8 0 0 1 8.97.26z"/><path d="M416.52 271.94s.06 7.37 29.38 8.22v5.45h-35z"/><path d="m446 289.85-.1-20.94s-14.64 16.88-47.9 9.59c0 0-.75 37.24 32.2 37.24H515l-54-55.05zm28.48-46.91 149.96-83.13-2.93 37.13L546 247.79l-71.52-4.85z"/><path d="M473.55 242.47a26.84 26.84 0 0 1 19.37-4.31l55.75.16 49.85-157-19.81-23.1 2.67-4.38 49.89 18.22-15.61 198a49.59 49.59 0 0 1-49.43 45.69h-45c-19 0-41.6-15.63-55.49-31.3-10.74-12.13-5.59-32.87 7.81-41.98z" class="cls-7"/><path fill="url(#linear-gradient-30)" d="M628.24 110.44s-22.4 19.94-40.39 4.53l-9.14 28.76 46.34 7.27z"/><path d="m628.24 110.44-12.58 159.61a49.58 49.58 0 0 1-49.43 45.68h-12.51c-4.1-18.59-5.56-45.09-5.05-77.4l29.05-133.52s7.05 49.57 50.52 5.63z" class="cls-14"/><path d="M564.09 315.73h-42.87c-19 0-41.6-15.62-55.49-31.28-10.75-12.13-5.58-32.87 7.82-42a26.7 26.7 0 0 1 19.36-4.31l55.76.16c13.81 16.36 16.51 44.83 15.42 77.43z" class="cls-7"/><path d="m584.78 315.74-8.44-24.43 42.95-52.82 11.1 59.6 24.17 13.61v4.04h-69.78z" class="cls-2"/><path d="m618.85 229.63-3.19 40.42a49.58 49.58 0 0 1-49.43 45.68h-12.51c-4.1-18.59-5.56-45.09-5.05-77.4l13.54-62.25s-8.72 63.92 56.64 53.55z" class="cls-16"/><path d="m629.56 304.75-11.13-5.66-2.98-19.45h11.99l2.95 18.45 11.82 6.66h-12.65z"/><path d="M642.21 304.75h-12.65l-11.13-5.66-2.98-19.45" class="cls-26"/><path d="m627.78 303.84 10.81-1.13-14.48-.71s6.59-2.27 9.36-2.15l-15-.74s9.81-2.61 11.72-2.49c0 0-6-3.46-12.28-1.19 0 0 7.77-3.36 11.69-2.5l-12.76-4.44 12-.15" class="cls-26"/><path d="M654.56 311.7h-71.18l1.4 4.03 69.78.01v-4.04z" class="cls-6"/><circle cx="603.71" cy="296.94" r="7.88" class="cls-7" transform="rotate(-76.67 603.72 296.937)"/><path d="M622.11 290.4s-24 12.52-24 25.34h-23s25.39-25.34 47-25.34zM461 260.68l30.8-4.64-18.22-13.56s.93-4.29 14.36-7 45.64 1.92 45.64 1.92 10.4-11.91 15.12.9c0 0 36.91 33.8 5.05 77.41H515s-76.73-12.09-54-55.03z"/><path d="M638.59 291.31s-16.14-12.81-53.81 24.42H515L568.93 229c13.24-21.31 45.77-15.18 50.36 9.49z" class="cls-14"/><path d="M574.56 286.14s-5.54 29.6-26.86 29.6h37.08z" class="cls-16"/><path d="m570.57 274.58 14.21 41.15 69.78.01v-4.04m-74.96-10.95-10.91-11.69" class="cls-4"/><path d="M537.11 280.16 568.93 229c13.24-21.31 45.77-15.18 50.36 9.49l19.3 52.82s-9.57-7.05-29.29 4.77m-60.63-57.75 29.05-133.52s1.22 9.21 4.94 14.1" class="cls-4"/><path d="m496.37 257.06 15.44 14.17 5.83-13.27-21.27-.9z" class="cls-3"/><path fill="url(#linear-gradient-31)" d="M635.42 167.17a9.27 9.27 0 0 0-5.3-6.65l.53-15.31a11.08 11.08 0 0 0-5.85 8.92l-.69 8.74-.47 6-10.27 7.13a11.08 11.08 0 0 0-4.77 8.92l-.16 9.18a4.94 4.94 0 0 0-.64 7.08l16.31-5.38c3.1-1.42 6.64-3.41 8.21-5.17 5.37-6.06 4.48-15.31 3.1-23.46z"/><path d="m608.44 194.06 11.31-4.55m-11.95 11.63 16.31-5.38m-15.55-8.71 13.03-7.12m-8.22-3.97 14.87-10.29" class="cls-4"/><path fill="url(#linear-gradient-32)" d="M462.46 241s.9 6.58 11.09 1.48c0 0 6.37 5.56 1.55 11.18s-14.13 7-14.13 7 .72-3.62-14-9.06z"/><path d="M464.78 269s10.43 1.32 17.6-3.58m7.62-26.93s8.07 2 4.9 13.13m-44.43 10.23s3.08 4.12 8 3.62m7.27-23.47s4.57-1.9 7.81.51m-21.01 34.6 7.84-15.26m19.2 5.13-7.56 4.33M508.76 235l24.79 2.46s5.24-6 10.65-4.68m-10.65 4.64-14.51 33.84m-1.4-41.26s1.74 4.67 10.11 6.83m-64.01 55.97a42.23 42.23 0 0 0 21.12 14.06M519 283.61s7.32 1.34 7.25 7.7M446 298.09v-8.24l2.62 5.31m-45.83-15.76a69.15 69.15 0 0 0 20.62.18" class="cls-26"/><path fill="#ff8f15" d="M507.83 297.93a1 1 0 0 1-.7-.29c-4.44-4.43-3-13.26-1.6-21.8a74.49 74.49 0 0 0 1.31-11.25c0-9.48-15.95-15.5-16.11-15.56a1 1 0 0 1 .69-1.86c.71.26 17.4 6.57 17.4 17.42a76.11 76.11 0 0 1-1.33 11.57c-1.32 8-2.68 16.36 1 20.08a1 1 0 0 1 0 1.4 1 1 0 0 1-.66.29zm-28.25 13.59a1 1 0 0 1-.89-.55c-5.67-11.34 1.8-21.4 7.8-29.48 2.27-3.07 4.42-6 5.4-8.4a6.76 6.76 0 0 0 0-5.57c-1.83-4-7.38-5.88-7.43-5.9a1 1 0 0 1-.63-1.25 1 1 0 0 1 1.25-.63c.26.09 6.41 2.19 8.61 6.94a8.73 8.73 0 0 1 0 7.15c-1.08 2.67-3.3 5.66-5.65 8.84-5.68 7.65-12.74 17.17-7.62 27.42a1 1 0 0 1-.44 1.33 1 1 0 0 1-.4.1z"/><path d="M460.38 315.74h103.71m31.65-187.1-6.81 56.29 2.97 3.08-4.95.48 5.43 4.79-8.16-.56 3.28 3.56-2.72 20.71M597.9 304l-13.12-43.32h-5.18l2.36-6.77-4.24 2.68-1.82-10.32-2.67 19.15-2.89-2-17.13 32.26a17.18 17.18 0 0 1-15.16 9.11h-16.23m62.96-4.96s4.45-12.37 29.32-22.72m-34.5-142.86s14.21 19.47 35.48 2.62" class="cls-4"/><path d="M457.88 256.88a48.15 48.15 0 0 0-10.88-5.26L462.46 241s-3.94 9.46-4.58 15.88z"/><circle cx="448.62" cy="237.3" r="14.33" fill="url(#linear-gradient-33)"/><path d="M453.25 204.86s10.51 5.23 7.13 12.13-10.69 17.45-10.69 17.45l2.85 3.38-1.23 2a9.69 9.69 0 0 1 3.42 5.37c.56 3.39-2.72 8.5-2.72 8.5l-6.18.57L431.67 241l2.62-18.82 1.8 2.35 3.61-13.47 2 2.26 6.3-15.61 1.15 5.57z" class="cls-5"/><path d="M453.38 251.12c-12.14-2.37-8.57-8.25-7.95-9.87s4.26-6.81 4.26-6.81l2.85 3.38-1.22 2a9.7 9.7 0 0 1 3.41 5.37c.27 1.81-.53 4.18-1.35 5.93z" class="cls-10"/><path fill="url(#linear-gradient-34)" d="M455.59 245.16c0 1.82-2 3.29-4.45 3.29s-4.45-1.47-4.45-3.29 2-3.29 4.45-3.29 4.45 1.47 4.45 3.29z"/><path d="M450.28 205.65s-2.19-.08-1.66 3.23 5.18 7.33 9.9 6.15m-9.9.21s1.85 3.06 7.84 3.85l-7.84.65 3 1.07-3.08 1.19-2.71 4m-6.83 5.25s.16 2.09 3.8 3.19m3.03 19.79-19.22-17.95s-4.86-5.57-10.05-1.29c0 0 5.69 3.56 7.31 19l-5.75 14m5.29-39.27 1.16 5.87M398 278.5a28.23 28.23 0 0 1 17.18-13.15m33.02-19.02a2.1 2.1 0 0 1 1.06-2.73c1.84-.95 4.27.2 4.27.2m-3.06-.55.67 2.4m1.4-7.83-1.23 1.97m-.84-2.49-1.85 3.7m-2.26-1.21s-3.82 5.14-.53 8" class="cls-4"/><path d="M401.59 296.66s5.13 19.08 28.65 19.08" class="cls-26"/><path d="M438.17 247.07s3.39 4.42 2.68 8.1" class="cls-4"/><path d="m578.71 58.22 19.81 23.14c-.44.23-6.15 19.38-6.15 19.38l11.84 6.18c13 8 24.24 1 24.24 1l2.82-35.86-49.89-18.22z" class="cls-2"/><path d="m598.79 65.56-.36 6.19-8.45-.37-11.27-13.16 20.08 7.34z" class="cls-7"/><path d="m578.71 58.22 52.15 19.08.41-5.24-49.89-18.22-2.67 4.38z" class="cls-6"/><path d="m598.52 81.36-8.54-10 8.45.37 11.17 9-5.39 26.12s-13.42 1.94-14.23-7.07z"/><path d="M627.38 92.62a7.19 7.19 0 1 1-7.19-7.19 7.19 7.19 0 0 1 7.19 7.19z" class="cls-7"/><path d="m604.21 106.92 5.39-26.12-11.17-9.05-8.45-.37" class="cls-26"/><path d="M591.92 95.65s4.63 6.08 14.63 5.58l-13.23-8.61L608 94.91l-12.63-6.68L609 89.34l-11.64-5.42 12.57-.5-11.39-2.06 8.35-4.89-11.13 1.64 6.69-5.53-9.83 1.86" class="cls-26"/><path d="M625.52 97.44a7.19 7.19 0 1 1-5.33-12m11.08-13.38L626 138.99m-4.49 57.95-3.09 38.05M589.05 70.3l-10.34-12.08 2.67-4.38m7.03 7.93 31.78 11.63" class="cls-4"/><path d="m625.58 311.7 3.98-6.95h12.65l12.35 6.95h-28.98z" class="cls-7"/><path d="M606.81 311.7h32.77M609.6 109.48s8.6 4.29 18.85-1.56M590 126.62s13.18 10.92 38.2-16.18m-41.83 9.18 3.61-11.36M434.29 222.18 431.67 241m8.03-29.94 1.96 2.26 6.29-15.61" class="cls-4"/><path fill="none" stroke="#000" stroke-linecap="round" stroke-linejoin="round" d="M.5 315.74h676.33"/></g></g></svg>