<svg xmlns="http://www.w3.org/2000/svg" xmlns:xlink="http://www.w3.org/1999/xlink" viewBox="0 0 66 32"><g transform="translate(0 0)" id="ss943452143_1"><g transform="translate(0 0)" id="ss943452143_2"><path d="M 64.054 6.965 C 64.571 6.248 65.022 5.485 65.4 4.685 C 66.245 2.844 66.255 1.435 65.427 0.613 C 64.615 -0.199 63.17 -0.193 61.357 0.63 C 60.549 1.007 59.779 1.459 59.056 1.981 C 58.341 1.465 57.58 1.016 56.783 0.64 C 54.94 -0.204 53.53 -0.214 52.705 0.613 C 51.893 1.424 51.899 2.868 52.723 4.677 C 53.097 5.48 53.546 6.246 54.065 6.965 C 53.546 7.684 53.096 8.45 52.72 9.253 C 51.896 11.064 51.888 12.507 52.703 13.319 C 53.105 13.72 53.659 13.924 54.35 13.924 C 55.04 13.924 55.864 13.714 56.773 13.299 C 57.577 12.923 58.344 12.474 59.064 11.956 C 59.784 12.475 60.552 12.926 61.357 13.301 C 62.267 13.717 63.082 13.923 63.781 13.923 C 64.48 13.923 65.026 13.719 65.427 13.318 C 66.255 12.492 66.245 11.084 65.4 9.245 C 65.022 8.446 64.571 7.682 64.054 6.965 Z M 61.95 1.927 C 62.655 1.607 63.306 1.429 63.781 1.429 C 64.07 1.429 64.289 1.494 64.414 1.618 C 64.753 1.957 64.633 2.925 64.106 4.082 C 63.832 4.673 63.511 5.242 63.146 5.782 C 62.717 5.264 62.254 4.755 61.768 4.268 C 61.281 3.781 60.769 3.317 60.249 2.889 C 60.789 2.523 61.358 2.201 61.95 1.927 Z M 62.274 6.964 C 61.8 7.554 61.293 8.118 60.756 8.652 C 60.22 9.189 59.655 9.696 59.064 10.171 C 58.474 9.697 57.91 9.19 57.374 8.655 C 56.837 8.12 56.33 7.556 55.855 6.965 C 56.807 5.785 57.882 4.711 59.064 3.76 C 59.655 4.235 60.22 4.742 60.756 5.279 C 61.292 5.813 61.799 6.376 62.274 6.964 Z M 54.022 4.086 C 53.496 2.929 53.375 1.962 53.715 1.622 C 53.839 1.499 54.057 1.433 54.348 1.433 C 54.825 1.433 55.475 1.609 56.179 1.932 C 56.768 2.204 57.334 2.524 57.872 2.888 C 57.36 3.313 56.854 3.775 56.361 4.267 C 55.868 4.759 55.404 5.265 54.978 5.78 C 54.614 5.242 54.295 4.675 54.022 4.086 Z M 56.181 12.001 C 55.022 12.527 54.054 12.648 53.715 12.309 C 53.375 11.97 53.496 11.002 54.022 9.845 C 54.296 9.256 54.616 8.69 54.98 8.153 C 55.406 8.665 55.869 9.172 56.363 9.666 C 56.858 10.159 57.362 10.619 57.875 11.045 C 57.337 11.408 56.77 11.728 56.181 12.001 Z M 64.42 12.311 C 64.08 12.65 63.112 12.53 61.953 12.004 C 61.36 11.731 60.791 11.41 60.25 11.045 C 60.762 10.619 61.271 10.156 61.765 9.663 C 62.259 9.17 62.716 8.666 63.145 8.147 C 63.508 8.681 63.828 9.244 64.1 9.83 C 64.634 10.997 64.757 11.969 64.416 12.311 Z" fill="#000000"></path><path d="M 57.999 6.964 C 57.999 6.375 58.478 5.897 59.068 5.897 C 59.658 5.897 60.136 6.375 60.136 6.964 C 60.136 7.554 59.658 8.032 59.068 8.032 C 58.478 8.032 57.999 7.554 57.999 6.964 Z" fill="#000000"></path><path d="M 6.945 13.678 L 3.974 8.441 L 2.7 8.441 L 2.7 13.682 L 0 13.682 L 0 0.229 L 5.054 0.229 C 6.096 0.229 6.983 0.413 7.717 0.779 C 8.45 1.145 9 1.64 9.366 2.262 C 9.736 2.897 9.926 3.619 9.916 4.353 C 9.924 5.214 9.653 6.055 9.145 6.752 C 8.629 7.465 7.864 7.957 6.848 8.229 L 10.069 13.678 Z M 2.7 6.414 L 4.957 6.414 C 5.69 6.414 6.237 6.238 6.598 5.885 C 6.958 5.532 7.138 5.04 7.138 4.41 C 7.138 3.794 6.958 3.316 6.598 2.975 C 6.237 2.634 5.691 2.464 4.957 2.464 L 2.7 2.464 Z" fill="#000000"></path><path d="M 20.525 9.15 L 12.712 9.15 C 12.777 9.921 13.047 10.525 13.522 10.961 C 13.998 11.398 14.583 11.616 15.278 11.616 C 16.28 11.616 16.994 11.186 17.419 10.326 L 20.332 10.326 C 20.032 11.34 19.409 12.23 18.558 12.859 C 17.683 13.521 16.609 13.851 15.336 13.851 C 14.308 13.851 13.385 13.623 12.568 13.167 C 11.757 12.72 11.092 12.047 10.654 11.231 C 10.198 10.396 9.969 9.433 9.969 8.341 C 9.969 7.236 10.194 6.267 10.644 5.432 C 11.073 4.619 11.73 3.949 12.535 3.505 C 13.346 3.055 14.278 2.83 15.332 2.831 C 16.348 2.831 17.258 3.049 18.062 3.486 C 18.853 3.91 19.504 4.557 19.933 5.345 C 20.377 6.148 20.599 7.07 20.599 8.11 C 20.602 8.458 20.578 8.806 20.525 9.15 Z M 17.809 7.339 C 17.796 6.645 17.547 6.091 17.06 5.677 C 16.573 5.262 15.975 5.053 15.266 5.05 C 14.597 5.05 14.034 5.253 13.578 5.658 C 13.121 6.063 12.839 6.623 12.732 7.339 Z M 21.75 5.432 C 22.143 4.638 22.751 3.97 23.505 3.505 C 24.252 3.053 25.111 2.82 25.984 2.831 C 26.781 2.831 27.479 2.991 28.077 3.312 C 28.641 3.605 29.132 4.02 29.514 4.527 L 29.514 3.004 L 32.234 3.004 L 32.234 13.678 L 29.514 13.678 L 29.514 12.118 C 29.142 12.642 28.649 13.07 28.077 13.364 C 27.467 13.692 26.763 13.856 25.965 13.856 C 25.095 13.864 24.242 13.624 23.505 13.162 C 22.751 12.684 22.144 12.007 21.75 11.207 C 21.319 10.365 21.103 9.399 21.103 8.307 C 21.103 7.225 21.319 6.267 21.75 5.432 Z M 29.126 6.655 C 28.888 6.204 28.526 5.83 28.084 5.575 C 27.657 5.327 27.171 5.197 26.676 5.199 C 25.664 5.188 24.731 5.742 24.255 6.634 C 23.992 7.103 23.86 7.657 23.86 8.297 C 23.847 8.883 23.983 9.463 24.255 9.982 C 24.495 10.442 24.856 10.827 25.298 11.096 C 25.714 11.349 26.191 11.482 26.677 11.482 C 27.172 11.484 27.658 11.354 28.085 11.106 C 28.527 10.851 28.888 10.476 29.127 10.026 C 29.384 9.557 29.513 8.995 29.513 8.339 C 29.513 7.684 29.384 7.122 29.126 6.655 Z M 33.703 5.442 C 34.131 4.635 34.78 3.967 35.574 3.515 C 36.371 3.058 37.284 2.83 38.313 2.831 C 39.637 2.831 40.733 3.162 41.602 3.823 C 42.471 4.485 43.054 5.413 43.35 6.607 L 40.437 6.607 C 40.3 6.17 40.026 5.788 39.656 5.518 C 39.29 5.255 38.836 5.124 38.296 5.123 C 37.525 5.123 36.915 5.403 36.465 5.961 C 36.016 6.52 35.789 7.313 35.784 8.341 C 35.784 9.356 36.009 10.143 36.459 10.701 C 36.91 11.26 37.52 11.539 38.29 11.539 C 39.383 11.539 40.096 11.051 40.431 10.075 L 43.344 10.075 C 43.048 11.231 42.463 12.149 41.589 12.83 C 40.715 13.511 39.622 13.851 38.309 13.851 C 37.28 13.851 36.366 13.623 35.57 13.167 C 34.778 12.715 34.13 12.046 33.703 11.241 C 33.253 10.41 33.028 9.443 33.027 8.341 C 33.027 7.239 33.252 6.272 33.703 5.442 Z M 47.608 5.22 L 47.608 10.383 C 47.608 10.743 47.695 11.003 47.869 11.163 C 48.042 11.324 48.335 11.404 48.746 11.404 L 50 11.404 L 50 13.678 L 48.302 13.678 C 46.027 13.678 44.89 12.573 44.89 10.364 L 44.89 5.22 L 43.614 5.22 L 43.614 3.004 L 44.888 3.004 L 44.888 0.365 L 47.608 0.365 L 47.608 3.004 L 50 3.004 L 50 5.22 Z M 13.138 18.691 C 13.567 17.885 14.215 17.217 15.009 16.765 C 15.806 16.309 16.72 16.081 17.749 16.081 C 19.072 16.081 20.169 16.411 21.037 17.073 C 21.906 17.735 22.489 18.663 22.785 19.857 L 19.872 19.857 C 19.736 19.42 19.463 19.038 19.092 18.769 C 18.725 18.505 18.271 18.373 17.731 18.374 C 16.96 18.374 16.35 18.653 15.9 19.212 C 15.451 19.77 15.226 20.563 15.226 21.591 C 15.226 22.606 15.45 23.393 15.9 23.951 C 16.35 24.509 16.961 24.788 17.731 24.79 C 18.825 24.79 19.538 24.301 19.872 23.325 L 22.785 23.325 C 22.489 24.481 21.903 25.4 21.029 26.08 C 20.155 26.761 19.062 27.101 17.75 27.101 C 16.721 27.101 15.807 26.873 15.011 26.418 C 14.217 25.965 13.568 25.297 13.14 24.49 C 12.689 23.663 12.464 22.696 12.464 21.591 C 12.465 20.486 12.69 19.52 13.138 18.691 Z M 24.178 18.681 C 24.572 17.888 25.18 17.22 25.934 16.755 C 26.681 16.303 27.539 16.07 28.412 16.081 C 29.21 16.081 29.908 16.241 30.506 16.563 C 31.07 16.855 31.56 17.269 31.942 17.776 L 31.942 16.254 L 34.663 16.254 L 34.663 26.93 L 31.942 26.93 L 31.942 25.367 C 31.57 25.89 31.077 26.316 30.506 26.61 C 29.896 26.937 29.191 27.101 28.393 27.101 C 27.524 27.11 26.67 26.869 25.934 26.408 C 25.18 25.93 24.572 25.253 24.178 24.452 C 23.747 23.611 23.532 22.644 23.532 21.552 C 23.532 20.473 23.748 19.516 24.178 18.681 Z M 31.557 19.905 C 31.318 19.454 30.957 19.08 30.515 18.824 C 30.087 18.578 29.601 18.449 29.107 18.452 C 28.095 18.442 27.162 18.996 26.686 19.887 C 26.422 20.357 26.29 20.913 26.291 21.554 C 26.278 22.14 26.414 22.721 26.686 23.24 C 26.926 23.697 27.287 24.08 27.728 24.348 C 28.144 24.601 28.621 24.734 29.107 24.733 C 29.602 24.734 30.088 24.603 30.515 24.353 C 30.957 24.098 31.318 23.723 31.557 23.273 C 31.814 22.804 31.943 22.242 31.942 21.587 C 31.942 20.932 31.813 20.371 31.557 19.905 Z M 52.594 17.304 C 53.398 18.107 53.799 19.228 53.799 20.666 L 53.799 26.93 L 51.096 26.93 L 51.096 21.033 C 51.096 20.199 50.884 19.56 50.462 19.117 C 50.039 18.674 49.46 18.452 48.725 18.452 C 47.993 18.452 47.41 18.674 46.977 19.117 C 46.545 19.56 46.329 20.199 46.331 21.034 L 46.331 26.93 L 43.633 26.93 L 43.633 21.033 C 43.633 20.197 43.421 19.558 42.996 19.115 C 42.572 18.672 41.993 18.451 41.26 18.45 C 40.513 18.45 39.925 18.672 39.495 19.115 C 39.065 19.558 38.85 20.198 38.849 21.033 L 38.849 26.93 L 36.148 26.93 L 36.148 16.254 L 38.849 16.254 L 38.849 17.545 C 39.203 17.089 39.663 16.726 40.189 16.485 C 40.754 16.224 41.37 16.093 41.993 16.1 C 42.771 16.086 43.541 16.268 44.23 16.63 C 44.876 16.973 45.407 17.499 45.755 18.142 C 46.111 17.517 46.635 17.003 47.268 16.659 C 47.924 16.288 48.665 16.095 49.419 16.1 C 50.731 16.1 51.789 16.501 52.594 17.304 Z M 58.958 16.572 C 59.604 16.236 60.324 16.067 61.052 16.081 C 61.925 16.07 62.783 16.304 63.53 16.755 C 64.282 17.218 64.89 17.882 65.286 18.672 C 65.717 19.503 65.932 20.463 65.932 21.552 C 65.932 22.641 65.717 23.608 65.286 24.452 C 64.892 25.253 64.284 25.93 63.53 26.408 C 62.787 26.871 61.927 27.111 61.052 27.101 C 60.267 27.101 59.576 26.941 58.978 26.62 C 58.411 26.325 57.914 25.911 57.521 25.406 L 57.521 32.014 L 54.821 32.014 L 54.821 16.254 L 57.521 16.254 L 57.521 17.795 C 57.898 17.282 58.39 16.863 58.958 16.572 Z M 62.778 19.886 C 62.536 19.44 62.176 19.07 61.736 18.817 C 61.31 18.574 60.828 18.447 60.338 18.45 C 59.853 18.449 59.376 18.579 58.958 18.826 C 58.519 19.087 58.16 19.464 57.92 19.915 C 57.391 20.97 57.391 22.212 57.92 23.268 C 58.16 23.718 58.519 24.093 58.958 24.353 C 59.816 24.857 60.881 24.854 61.736 24.344 C 62.176 24.078 62.536 23.698 62.778 23.245 C 63.041 22.771 63.173 22.206 63.173 21.55 C 63.173 20.91 63.041 20.355 62.778 19.886 Z" fill="#000000"></path></g></g></svg>